SplineFontDB: 3.0
FontName: Comme-Light
FullName: Comme Light
FamilyName: Comme Light
Weight: Regular
Copyright: Digitized data Copyright (c) 2011-2014, vernon adams.
Version: 2
ItalicAngle: 0
UnderlinePosition: 0
UnderlineWidth: 0
Ascent: 727
Descent: 273
UFOAscent: 761.719
UFODescent: -271.484
LayerCount: 2
Layer: 0 0 "Back"  1
Layer: 1 0 "Fore"  0
OS2Version: 0
OS2_WeightWidthSlopeOnly: 0
OS2_UseTypoMetrics: 0
CreationTime: 1397225345
ModificationTime: 1397225632
PfmFamily: 0
TTFWeight: 300
TTFWidth: 5
LineGap: 0
VLineGap: 0
OS2TypoAscent: 0
OS2TypoAOffset: 1
OS2TypoDescent: 0
OS2TypoDOffset: 1
OS2TypoLinegap: 0
OS2WinAscent: 0
OS2WinAOffset: 1
OS2WinDescent: 0
OS2WinDOffset: 1
HheadAscent: 0
HheadAOffset: 1
HheadDescent: 0
HheadDOffset: 1
OS2Vendor: 'NeWT'
Lookup: 4 0 1 "ligaStandardLigatureslookup0"  {"ligaStandardLigatureslookup0 subtable"  } ['liga' ('latn' <'dflt' > 'grek' <'dflt' > 'DFLT' <'dflt' > ) ]
Lookup: 4 0 0 "fracDiagonalFractionslookup11"  {"fracDiagonalFractionslookup11 subtable"  } ['frac' ('latn' <'dflt' 'CAT ' 'MOL ' 'ROM ' 'TRK ' > 'grek' <'dflt' > 'DFLT' <'dflt' > ) ]
Lookup: 6 0 0 "ordnOrdinalslookup12"  {"ordnOrdinalslookup12 contextual 0"  "ordnOrdinalslookup12 contextual 1"  } ['ordn' ('latn' <'dflt' 'CAT ' 'MOL ' 'ROM ' 'TRK ' > 'grek' <'dflt' > 'DFLT' <'dflt' > ) ]
Lookup: 1 0 0 "Single Substitution lookup 3"  {"Single Substitution lookup 3 subtable"  } []
Lookup: 1 0 0 "Single Substitution lookup 4"  {"Single Substitution lookup 4 subtable"  } []
Lookup: 4 0 0 "dligDiscretionaryLigatureslooku"  {"dligDiscretionaryLigatureslooku subtable"  } ['dlig' ('latn' <'dflt' 'CAT ' 'MOL ' 'ROM ' 'TRK ' > 'grek' <'dflt' > 'DFLT' <'dflt' > ) ]
MarkAttachClasses: 1
DEI: 91125
ChainSub2: coverage "ordnOrdinalslookup12 contextual 1"  0 0 0 1
 1 1 0
  Coverage: 3 O o
  BCoverage: 49 zero one two three four five six seven eight nine
 1
  SeqLookup: 0 "Single Substitution lookup 4" 
EndFPST

StartChar: A
Encoding: 65 65 0
Width: 673
VWidth: 0
Flags: HW
PickledData: "(dp1
S'org.pippin.gimp.org.kernagic'
p2
(dp3
S'lstem'
p4
I0
sS'rstem'
p5
I0
ssS'com.typemytype.robofont.layerData'
p6
(dp7
sS'org.robofab.postScriptHintData'
p8
(dp9
s."
AnchorPoint: "bot" 336 0 basechar 0
AnchorPoint: "top" 335 711 basechar 0
LayerCount: 2
Fore
SplineSet
299 711 m 257
 30 0 l 257
 105 0 l 257
 192 231 l 257
 482 231 l 257
 568 0 l 257
 644 0 l 257
 372 711 l 257
 299 711 l 257
211 286 m 257
 336 630 l 257
 463 286 l 257
 211 286 l 257
EndSplineSet
Substitution2: "Single Substitution lookup 3 subtable" ordfeminine
EndChar

StartChar: AE
Encoding: 198 198 1
Width: 802
VWidth: 0
Flags: HW
PickledData: "(dp1
S'org.pippin.gimp.org.kernagic'
p2
(dp3
S'lstem'
p4
I0
sS'rstem'
p5
I0
ssS'com.typemytype.robofont.layerData'
p6
(dp7
sS'org.robofab.postScriptHintData'
p8
(dp9
s."
LayerCount: 2
Fore
SplineSet
403 290 m 257
 208 290 l 257
 403 647 l 257
 403 290 l 257
362 711 m 257
 -34 0 l 257
 48 0 l 257
 179 235 l 257
 403 235 l 257
 403 0 l 257
 779 0 l 257
 785 60 l 257
 477 60 l 257
 477 341 l 257
 744 341 l 257
 744 401 l 257
 477 401 l 257
 477 651 l 257
 776 651 l 257
 779 711 l 257
 362 711 l 257
EndSplineSet
EndChar

StartChar: B
Encoding: 66 66 13
Width: 666
VWidth: 0
Flags: HW
PickledData: "(dp1
S'org.pippin.gimp.org.kernagic'
p2
(dp3
S'lstem'
p4
I0
sS'rstem'
p5
I0
ssS'com.typemytype.robofont.layerData'
p6
(dp7
sS'org.robofab.postScriptHintData'
p8
(dp9
s."
AnchorPoint: "top" 323 711 basechar 0
LayerCount: 2
Fore
SplineSet
271 -5 m 256
 514 -5 602 59 602 208 c 256
 602 296 558 358 454 383 c 257
 549 413 575 470 575 537 c 256
 575 615 561 715 296 715 c 256
 242 715 179 711 102 702 c 257
 102 3 l 257
 165 -2 221 -5 271 -5 c 256
179 651 m 257
 226 655 266 658 301 658 c 256
 459 658 506 618 506 533 c 256
 506 429 426 410 331 410 c 258
 179 410 l 257
 179 651 l 257
179 354 m 257
 318 354 l 258
 462 354 526 311 526 204 c 256
 526 117 506 54 287 54 c 256
 255 54 220 56 179 58 c 257
 179 354 l 257
EndSplineSet
EndChar

StartChar: C
Encoding: 67 67 14
Width: 681
VWidth: 0
Flags: HW
PickledData: "(dp1
S'org.pippin.gimp.org.kernagic'
p2
(dp3
S'lstem'
p4
I0
sS'rstem'
p5
I0
ssS'com.typemytype.robofont.layerData'
p6
(dp7
sS'org.robofab.postScriptHintData'
p8
(dp9
s."
AnchorPoint: "bot" 387 0 basechar 0
AnchorPoint: "top" 379 711 basechar 0
LayerCount: 2
Fore
SplineSet
642 545 m 257
 613 667 496 721 389 721 c 256
 201 721 75 587 75 356 c 256
 75 125 201 -9 389 -9 c 256
 496 -9 614 45 644 167 c 257
 589 187 l 257
 582 187 l 257
 561 106 482 53 393 53 c 256
 248 53 153 159 153 356 c 256
 153 554 248 659 394 659 c 256
 482 659 559 605 580 525 c 257
 587 525 l 257
 642 545 l 257
EndSplineSet
EndChar

StartChar: D
Encoding: 68 68 20
Width: 732
VWidth: 0
Flags: HW
PickledData: "(dp1
S'org.pippin.gimp.org.kernagic'
p2
(dp3
S'lstem'
p4
I0
sS'rstem'
p5
I0
ssS'com.fontlab.hintData'
p6
(dp7
S'vhints'
p8
((dp9
S'position'
p10
I1280
sS'width'
p11
I122
stp12
sS'hhints'
p13
((dp14
g10
I0
sg11
I94
s(dp15
g10
I1355
sg11
I94
stp16
ssS'com.typemytype.robofont.layerData'
p17
(dp18
sS'org.robofab.postScriptHintData'
p19
(dp20
s."
HStem: 0 46 662 46
VStem: 625 60
AnchorPoint: "bot" 379 -0 basechar 0
AnchorPoint: "top" 362 711 basechar 0
LayerCount: 2
Fore
SplineSet
102 4 m 257
 155 -2 205 -5 249 -5 c 256
 558 -5 658 138 658 362 c 256
 658 576 587 714 282 714 c 256
 229 714 169 711 102 702 c 257
 102 4 l 257
179 54 m 257
 179 652 l 257
 219 656 255 658 287 658 c 256
 523 658 581 550 581 359 c 256
 581 173 519 50 269 50 c 256
 242 50 211 51 179 54 c 257
EndSplineSet
EndChar

StartChar: Delta
Encoding: 8710 8710 23
Width: 631
VWidth: 0
Flags: HW
PickledData: "(dp1
S'org.pippin.gimp.org.kernagic'
p2
(dp3
S'lstem'
p4
I0
sS'rstem'
p5
I0
ssS'com.typemytype.robofont.layerData'
p6
(dp7
S'b'
(dp8
S'name'
p9
S'uni2206'
p10
sS'lib'
p11
(dp12
sS'unicodes'
p13
(tsS'width'
p14
I1278
sS'contours'
p15
(tsS'components'
p16
(tsS'anchors'
p17
(tsssS'org.robofab.postScriptHintData'
p18
(dp19
s."
LayerCount: 2
Fore
SplineSet
330 594 m 257
 510 77 l 257
 120 77 l 257
 298 594 l 257
 313 651 l 257
 330 594 l 257
276 747 m 257
 36 42 l 257
 36 0 l 257
 597 0 l 257
 597 42 l 257
 357 747 l 257
 276 747 l 257
EndSplineSet
EndChar

StartChar: E
Encoding: 69 69 24
Width: 619
VWidth: 0
Flags: HW
PickledData: "(dp1
S'org.pippin.gimp.org.kernagic'
p2
(dp3
S'lstem'
p4
I0
sS'rstem'
p5
I0
ssS'com.typemytype.robofont.layerData'
p6
(dp7
sS'org.robofab.postScriptHintData'
p8
(dp9
s."
AnchorPoint: "bot" 333 0 basechar 0
AnchorPoint: "top" 352 711 basechar 0
LayerCount: 2
Fore
SplineSet
102 711 m 257
 102 0 l 257
 557 0 l 257
 562 60 l 257
 179 60 l 257
 179 337 l 257
 521 337 l 257
 521 397 l 257
 179 397 l 257
 179 651 l 257
 554 651 l 257
 557 711 l 257
 102 711 l 257
EndSplineSet
EndChar

StartChar: Eng
Encoding: 330 330 33
Width: 738
VWidth: 0
Flags: HW
PickledData: "(dp1
S'org.robofab.postScriptHintData'
p2
(dp3
s."
LayerCount: 2
Fore
SplineSet
571 409 m 257
 571 -3 l 258
 571 -110 544 -150 359 -150 c 257
 360 -208 l 257
 564 -208 639 -157 639 -5 c 258
 639 409 l 257
 571 409 l 257
EndSplineSet
Refer: 69 78 N 1 0 0 1 0 0 2
EndChar

StartChar: Euro
Encoding: 8364 8364 36
Width: 672
VWidth: 0
Flags: HW
PickledData: "(dp1
S'org.pippin.gimp.org.kernagic'
p2
(dp3
S'lstem'
p4
I0
sS'rstem'
p5
I0
ssS'com.typemytype.robofont.layerData'
p6
(dp7
S'b'
(dp8
S'name'
p9
S'Euro'
p10
sS'lib'
p11
(dp12
sS'unicodes'
p13
(tsS'width'
p14
I1391
sS'contours'
p15
(tsS'components'
p16
(tsS'anchors'
p17
(tsssS'org.robofab.postScriptHintData'
p18
(dp19
s."
LayerCount: 2
Fore
SplineSet
-19 260 m 257
 406 260 l 257
 411 312 l 257
 104 312 l 257
 104 403 l 257
 411 403 l 257
 415 453 l 257
 -11 453 l 257
 -15 403 l 257
 66 403 l 257
 65 312 l 257
 -14 312 l 257
 -19 260 l 257
EndSplineSet
Refer: 14 67 N 1 0 0 1 -31 0 2
EndChar

StartChar: F
Encoding: 70 70 37
Width: 573
VWidth: 0
Flags: HW
PickledData: "(dp1
S'org.pippin.gimp.org.kernagic'
p2
(dp3
S'lstem'
p4
I0
sS'rstem'
p5
I705
ssS'com.typemytype.robofont.layerData'
p6
(dp7
sS'org.robofab.postScriptHintData'
p8
(dp9
s."
AnchorPoint: "top" 340 711 basechar 0
LayerCount: 2
Fore
SplineSet
102 711 m 257
 102 0 l 257
 180 0 l 257
 180 329 l 257
 506 329 l 257
 506 386 l 257
 180 386 l 257
 180 650 l 257
 547 650 l 257
 552 711 l 257
 102 711 l 257
EndSplineSet
EndChar

StartChar: G
Encoding: 71 71 38
Width: 717
VWidth: 0
Flags: HW
PickledData: "(dp1
S'org.pippin.gimp.org.kernagic'
p2
(dp3
S'lstem'
p4
I0
sS'rstem'
p5
I0
ssS'com.typemytype.robofont.layerData'
p6
(dp7
sS'org.robofab.postScriptHintData'
p8
(dp9
s."
AnchorPoint: "bot" 401 0 basechar 0
AnchorPoint: "top" 395 711 basechar 0
LayerCount: 2
Fore
SplineSet
404 -10 m 256
 500 -10 574 6 645 34 c 257
 645 368 l 257
 415 368 l 257
 410 314 l 257
 573 306 l 257
 573 74 l 257
 537 64 484 53 418 53 c 256
 227 53 153 175 153 359 c 256
 153 540 251 658 417 658 c 256
 501 658 566 625 604 592 c 257
 610 592 l 257
 644 639 l 257
 596 687 512 720 416 720 c 256
 207 720 75 579 75 358 c 256
 75 145 183 -10 404 -10 c 256
EndSplineSet
EndChar

StartChar: H
Encoding: 72 72 44
Width: 745
VWidth: 0
Flags: HW
PickledData: "(dp1
S'org.pippin.gimp.org.kernagic'
p2
(dp3
S'lstem'
p4
I0
sS'rstem'
p5
I0
ssS'com.typemytype.robofont.layerData'
p6
(dp7
sS'org.robofab.postScriptHintData'
p8
(dp9
s."
AnchorPoint: "top" 378 711 basechar 0
LayerCount: 2
Fore
SplineSet
564 335 m 257
 564 0 l 257
 642 0 l 257
 642 711 l 257
 564 711 l 257
 564 396 l 257
 181 396 l 257
 181 711 l 257
 104 711 l 257
 104 0 l 257
 181 0 l 257
 181 335 l 257
 564 335 l 257
EndSplineSet
EndChar

StartChar: Hbar
Encoding: 294 294 45
Width: 721
VWidth: 0
Flags: HW
PickledData: "(dp1
S'org.pippin.gimp.org.kernagic'
p2
(dp3
S'lstem'
p4
I0
sS'rstem'
p5
I0
ssS'com.typemytype.robofont.layerData'
p6
(dp7
sS'org.robofab.postScriptHintData'
p8
(dp9
s."
LayerCount: 2
Fore
SplineSet
35 611 m 257
 35 560 l 257
 682 560 l 257
 682 611 l 257
 35 611 l 257
EndSplineSet
Refer: 44 72 N 1 0 0 1 0 0 2
EndChar

StartChar: I
Encoding: 73 73 47
Width: 448
VWidth: 0
Flags: HW
PickledData: "(dp1
S'org.pippin.gimp.org.kernagic'
p2
(dp3
S'lstem'
p4
I0
sS'rstem'
p5
I0
ssS'com.fontlab.hintData'
p6
(dp7
S'vhints'
p8
((dp9
S'position'
p10
I111
sS'width'
p11
I529
stp12
sS'hhints'
p13
((dp14
g10
I0
sg11
I86
s(dp15
g10
I1363
sg11
I86
stp16
ssS'com.typemytype.robofont.layerData'
p17
(dp18
sS'org.robofab.postScriptHintData'
p19
(dp20
s."
HStem: 0 42 666 42
VStem: 54 258
AnchorPoint: "top" 223 711 basechar 0
LayerCount: 2
Fore
SplineSet
88 711 m 257
 88 663 l 257
 184 663 l 257
 184 48 l 257
 88 48 l 257
 88 0 l 257
 356 0 l 257
 356 48 l 257
 261 48 l 257
 261 663 l 257
 356 663 l 257
 356 711 l 257
 88 711 l 257
EndSplineSet
EndChar

StartChar: J
Encoding: 74 74 58
Width: 375
VWidth: 0
Flags: HW
PickledData: "(dp1
S'org.pippin.gimp.org.kernagic'
p2
(dp3
S'lstem'
p4
I132
sS'rstem'
p5
I0
ssS'com.typemytype.robofont.layerData'
p6
(dp7
sS'org.robofab.postScriptHintData'
p8
(dp9
s."
AnchorPoint: "top" 224 711 basechar 0
LayerCount: 2
Fore
SplineSet
184 711 m 257
 184 8 l 258
 184 -75 177 -86 119 -109 c 257
 67 -130 l 257
 91 -188 l 257
 128 -175 l 258
 234 -137 261 -115 261 12 c 258
 261 711 l 257
 184 711 l 257
EndSplineSet
EndChar

StartChar: K
Encoding: 75 75 60
Width: 630
VWidth: 0
Flags: HW
PickledData: "(dp1
S'org.pippin.gimp.org.kernagic'
p2
(dp3
S'lstem'
p4
I0
sS'rstem'
p5
I851
ssS'com.typemytype.robofont.layerData'
p6
(dp7
sS'org.robofab.postScriptHintData'
p8
(dp9
s."
AnchorPoint: "bot" 327 0 basechar 0
AnchorPoint: "top" 326 711 basechar 0
LayerCount: 2
Fore
SplineSet
612 711 m 257
 527 711 l 257
 179 363 l 257
 179 711 l 257
 102 711 l 257
 102 0 l 257
 179 0 l 257
 179 291 l 257
 257 367 l 257
 543 0 l 257
 630 0 l 257
 630 8 l 257
 314 408 l 257
 612 702 l 257
 612 711 l 257
EndSplineSet
EndChar

StartChar: L
Encoding: 76 76 62
Width: 532
VWidth: 0
Flags: HW
PickledData: "(dp1
S'org.pippin.gimp.org.kernagic'
p2
(dp3
S'lstem'
p4
I0
sS'rstem'
p5
I597
ssS'com.typemytype.robofont.layerData'
p6
(dp7
sS'org.robofab.postScriptHintData'
p8
(dp9
s."
AnchorPoint: "bot" 313 0 basechar 0
AnchorPoint: "top" 229 711 basechar 0
LayerCount: 2
Fore
SplineSet
102 711 m 257
 102 0 l 257
 524 0 l 257
 525 60 l 257
 179 60 l 257
 179 711 l 257
 102 711 l 257
EndSplineSet
EndChar

StartChar: M
Encoding: 77 77 68
Width: 877
VWidth: 0
Flags: HW
PickledData: "(dp1
S'org.pippin.gimp.org.kernagic'
p2
(dp3
S'lstem'
p4
I0
sS'rstem'
p5
I0
ssS'org.robofab.postScriptHintData'
p6
(dp7
sS'com.typemytype.robofont.guides'
p8
((dp9
S'y'
I378
sS'x'
I548
sS'magnetic'
p10
I5
sS'angle'
p11
I0
sS'isGlobal'
p12
I00
stp13
sS'com.typemytype.robofont.layerData'
p14
(dp15
sS'com.fontlab.hintData'
p16
(dp17
S'vhints'
p18
((dp19
S'position'
p20
I185
sS'width'
p21
I166
s(dp22
g20
I214
sg21
I151
s(dp23
g20
I332
sg21
I33
s(dp24
g20
I1463
sg21
I149
s(dp25
g20
I1463
sg21
I39
s(dp26
g20
I1477
sg21
I164
stp27
ss."
VStem: 90 81 104 74 162 16 714 73 714 19 721 80
AnchorPoint: "top" 445 711 basechar 0
LayerCount: 2
Fore
SplineSet
93 0 m 257
 165 0 l 257
 165 241 l 257
 169 617 l 257
 406 78 l 257
 472 78 l 257
 709 612 l 257
 713 242 l 257
 713 0 l 257
 785 0 l 257
 785 241 l 257
 774 711 l 257
 681 711 l 257
 439 166 l 257
 200 711 l 257
 104 711 l 257
 93 241 l 257
 93 0 l 257
EndSplineSet
EndChar

StartChar: N
Encoding: 78 78 69
Width: 741
VWidth: 0
Flags: HW
PickledData: "(dp1
S'org.pippin.gimp.org.kernagic'
p2
(dp3
S'lstem'
p4
I0
sS'rstem'
p5
I0
ssS'com.typemytype.robofont.layerData'
p6
(dp7
sS'org.robofab.postScriptHintData'
p8
(dp9
s."
AnchorPoint: "bot" 377 0 basechar 0
AnchorPoint: "top" 384 711 basechar 0
LayerCount: 2
Fore
SplineSet
571 711 m 257
 571 297 l 257
 576 97 l 257
 179 711 l 257
 102 711 l 257
 102 0 l 257
 171 0 l 257
 171 395 l 257
 164 610 l 257
 561 0 l 257
 640 0 l 257
 640 711 l 257
 571 711 l 257
EndSplineSet
EndChar

StartChar: O
Encoding: 79 79 75
Width: 791
VWidth: 0
Flags: HW
PickledData: "(dp1
S'org.pippin.gimp.org.kernagic'
p2
(dp3
S'lstem'
p4
I0
sS'rstem'
p5
I0
ssS'org.robofab.postScriptHintData'
p6
(dp7
sS'com.typemytype.robofont.guides'
p8
(tsS'com.typemytype.robofont.layerData'
p9
(dp10
sS'com.fontlab.hintData'
p11
(dp12
S'vhints'
p13
((dp14
S'position'
p15
I150
sS'width'
p16
I122
s(dp17
g15
I1390
sg16
I122
stp18
sS'hhints'
p19
((dp20
g15
I-19
sg16
I96
s(dp21
g15
I1372
sg16
I96
stp22
ss."
HStem: -9 47 670 47
VStem: 73 60 679 60
AnchorPoint: "top" 397 711 basechar 0
LayerCount: 2
Fore
SplineSet
638 351 m 256
 638 174 575 52 396 52 c 256
 217 52 154 174 154 351 c 256
 154 536 224 659 397 659 c 256
 571 659 638 535 638 351 c 256
77 352 m 256
 77 133 176 -10 397 -10 c 256
 615 -10 715 136 715 350 c 256
 715 575 609 721 398 721 c 256
 182 721 77 577 77 352 c 256
EndSplineSet
Substitution2: "Single Substitution lookup 4 subtable" ordmasculine
EndChar

StartChar: OE
Encoding: 338 338 76
Width: 1194
VWidth: 0
Flags: HW
PickledData: "(dp1
S'org.pippin.gimp.org.kernagic'
p2
(dp3
S'lstem'
p4
I0
sS'rstem'
p5
I0
ssS'com.typemytype.robofont.layerData'
p6
(dp7
S'b'
(dp8
S'name'
p9
S'OE'
p10
sS'lib'
p11
(dp12
sS'unicodes'
p13
(tsS'width'
p14
I2367
sS'contours'
p15
(tsS'components'
p16
(tsS'anchors'
p17
(tsssS'org.robofab.postScriptHintData'
p18
(dp19
s."
LayerCount: 2
Fore
SplineSet
633 351 m 256
 633 174 570 52 392 52 c 256
 213 52 149 174 149 351 c 256
 149 536 220 659 393 659 c 256
 566 659 633 535 633 351 c 256
72 352 m 256
 72 133 172 -10 393 -10 c 256
 503 -10 586 32 633 105 c 257
 633 0 l 257
 1088 0 l 257
 1093 60 l 257
 710 60 l 257
 710 337 l 257
 1053 337 l 257
 1053 397 l 257
 710 397 l 257
 710 651 l 257
 1085 651 l 257
 1088 711 l 257
 633 711 l 257
 633 601 l 257
 585 677 501 721 393 721 c 256
 177 721 72 577 72 352 c 256
EndSplineSet
EndChar

StartChar: Oslash
Encoding: 216 216 85
Width: 795
VWidth: 0
Flags: HW
PickledData: "(dp1
S'org.pippin.gimp.org.kernagic'
p2
(dp3
S'lstem'
p4
I0
sS'rstem'
p5
I0
ssS'com.typemytype.robofont.layerData'
p6
(dp7
sS'org.robofab.postScriptHintData'
p8
(dp9
s."
AnchorPoint: "top" 398 711 basechar 0
LayerCount: 2
Fore
SplineSet
396 52 m 256
 367 52 342 55 319 62 c 257
 534 621 l 257
 607 571 638 475 638 351 c 256
 638 174 575 52 396 52 c 256
276 78 m 257
 188 122 154 222 154 351 c 256
 154 536 224 659 397 659 c 256
 433 659 465 653 492 643 c 257
 276 78 l 257
250 -119 m 257
 296 2 l 257
 326 -6 360 -10 397 -10 c 256
 615 -10 715 136 715 350 c 256
 715 507 663 626 559 683 c 257
 605 805 l 257
 560 822 l 257
 515 703 l 257
 481 715 441 721 398 721 c 256
 182 721 77 577 77 352 c 256
 77 188 133 67 253 17 c 257
 207 -104 l 257
 250 -119 l 257
EndSplineSet
EndChar

StartChar: P
Encoding: 80 80 88
Width: 621
VWidth: 0
Flags: HW
PickledData: "(dp1
S'org.pippin.gimp.org.kernagic'
p2
(dp3
S'lstem'
p4
I0
sS'rstem'
p5
I807
ssS'com.typemytype.robofont.layerData'
p6
(dp7
sS'org.robofab.postScriptHintData'
p8
(dp9
s."
AnchorPoint: "top" 327 711 basechar 0
LayerCount: 2
Fore
SplineSet
102 702 m 257
 102 0 l 257
 179 0 l 257
 179 326 l 257
 219 323 254 321 286 321 c 256
 521 321 574 403 574 526 c 256
 574 653 506 714 298 714 c 256
 243 714 178 711 102 702 c 257
179 382 m 257
 179 652 l 257
 227 656 269 658 304 658 c 256
 466 658 503 613 503 525 c 256
 503 427 470 377 291 377 c 256
 259 377 221 379 179 382 c 257
EndSplineSet
EndChar

StartChar: Q
Encoding: 81 81 89
Width: 781
VWidth: 0
Flags: HW
PickledData: "(dp1
S'org.pippin.gimp.org.kernagic'
p2
(dp3
S'lstem'
p4
I0
sS'rstem'
p5
I0
ssS'com.typemytype.robofont.layerData'
p6
(dp7
sS'org.robofab.postScriptHintData'
p8
(dp9
s."
LayerCount: 2
Fore
SplineSet
421 14 m 257
 430 -4 574 -202 577 -207 c 257
 625 -171 l 257
 618 -164 489 16 484 27 c 257
 421 14 l 257
EndSplineSet
Refer: 75 79 N 1 0 0 1 0 0 2
EndChar

StartChar: R
Encoding: 82 82 90
Width: 655
VWidth: 0
Flags: HW
PickledData: "(dp1
S'org.pippin.gimp.org.kernagic'
p2
(dp3
S'lstem'
p4
I0
sS'rstem'
p5
I839
ssS'com.fontlab.hintData'
p6
(dp7
S'vhints'
p8
((dp9
S'position'
p10
I1122
sS'width'
p11
I117
stp12
sS'hhints'
p13
((dp14
g10
I722
sg11
I96
s(dp15
g10
I1355
sg11
I94
stp16
ssS'com.typemytype.robofont.layerData'
p17
(dp18
sS'org.robofab.postScriptHintData'
p19
(dp20
s."
HStem: 353 47 662 46
VStem: 548 57
AnchorPoint: "bot" 347 0 basechar 0
AnchorPoint: "top" 343 711 basechar 0
LayerCount: 2
Fore
SplineSet
597 527 m 256
 597 659 531 714 318 714 c 256
 258 714 187 710 102 702 c 257
 102 0 l 257
 179 0 l 257
 179 335 l 257
 371 335 l 257
 535 0 l 257
 616 0 l 257
 616 9 l 257
 448 343 l 257
 545 366 597 423 597 527 c 256
179 652 m 257
 234 656 280 659 319 659 c 256
 494 659 526 613 526 527 c 256
 526 429 490 390 327 390 c 258
 179 390 l 257
 179 652 l 257
EndSplineSet
EndChar

StartChar: S
Encoding: 83 83 94
Width: 593
VWidth: 0
Flags: HW
PickledData: "(dp1
S'org.pippin.gimp.org.kernagic'
p2
(dp3
S'lstem'
p4
I185
sS'rstem'
p5
I826
ssS'com.typemytype.robofont.guides'
p6
((dp7
S'y'
I973
sS'x'
I1035
sS'magnetic'
p8
I5
sS'angle'
p9
F90
sS'isGlobal'
p10
I00
s(dp11
S'y'
I382
sS'x'
I75
sg8
I5
sg9
F90
sg10
I00
stp12
sS'com.typemytype.robofont.layerData'
p13
(dp14
sS'org.robofab.postScriptHintData'
p15
(dp16
s."
AnchorPoint: "bot" 305 0 basechar 0
AnchorPoint: "top" 302 719 basechar 0
LayerCount: 2
Fore
SplineSet
461 188 m 256
 461 89 392 53 292 53 c 256
 218 53 154 76 106 121 c 257
 101 121 l 257
 61 78 l 257
 96 36 175 -10 292 -10 c 256
 410 -10 533 37 533 188 c 256
 533 312 462 345 351 389 c 258
 247 431 l 257
 164 466 140 482 140 544 c 256
 140 633 218 659 303 659 c 256
 379 659 439 630 475 593 c 257
 481 593 l 257
 519 638 l 257
 473 689 393 721 304 721 c 256
 184 721 63 682 63 534 c 256
 63 436 120 407 219 366 c 258
 321 324 l 258
 428 280 461 259 461 188 c 256
EndSplineSet
EndChar

StartChar: Sigma
Encoding: 931 931 100
Width: 543
VWidth: 0
Flags: HW
LayerCount: 2
Fore
SplineSet
49 721 m 257
 49 678 l 257
 298 304 l 257
 38 -70 l 257
 38 -112 l 257
 518 -112 l 257
 518 -42 l 257
 137 -42 l 257
 389 302 l 257
 146 656 l 257
 496 656 l 257
 496 721 l 257
 49 721 l 257
EndSplineSet
EndChar

StartChar: T
Encoding: 84 84 101
Width: 553
VWidth: 0
Flags: HW
PickledData: "(dp1
S'org.pippin.gimp.org.kernagic'
p2
(dp3
S'lstem'
p4
I285
sS'rstem'
p5
I844
ssS'com.typemytype.robofont.layerData'
p6
(dp7
sS'org.robofab.postScriptHintData'
p8
(dp9
s."
AnchorPoint: "bot" 278 0 basechar 0
AnchorPoint: "top" 278 711 basechar 0
LayerCount: 2
Fore
SplineSet
6 711 m 257
 6 652 l 257
 237 652 l 257
 237 0 l 257
 314 0 l 257
 314 652 l 257
 547 652 l 257
 547 711 l 257
 6 711 l 257
EndSplineSet
EndChar

StartChar: Thorn
Encoding: 222 222 105
Width: 582
VWidth: 0
Flags: HW
PickledData: "(dp1
S'org.pippin.gimp.org.kernagic'
p2
(dp3
S'lstem'
p4
I0
sS'rstem'
p5
I0
ssS'com.typemytype.robofont.layerData'
p6
(dp7
S'b'
(dp8
S'name'
p9
S'Thorn'
p10
sS'lib'
p11
(dp12
sS'unicodes'
p13
(tsS'width'
p14
I1192
sS'contours'
p15
(tsS'components'
p16
(tsS'anchors'
p17
(tsssS'org.robofab.postScriptHintData'
p18
(dp19
s."
LayerCount: 2
Fore
SplineSet
97 0 m 257
 174 0 l 257
 174 222 l 257
 283 222 l 258
 443 222 504 283 504 405 c 256
 504 529 413 569 284 569 c 258
 174 569 l 257
 174 727 l 257
 97 727 l 257
 97 0 l 257
174 512 m 257
 284 512 l 258
 372 512 427 491 427 405 c 256
 427 308 387 280 282 280 c 258
 174 280 l 257
 174 512 l 257
EndSplineSet
EndChar

StartChar: U
Encoding: 85 85 106
Width: 707
VWidth: 0
Flags: HW
PickledData: "(dp1
S'org.pippin.gimp.org.kernagic'
p2
(dp3
S'lstem'
p4
I0
sS'rstem'
p5
I0
ssS'com.typemytype.robofont.layerData'
p6
(dp7
sS'org.robofab.postScriptHintData'
p8
(dp9
s."
AnchorPoint: "bot" 352 0 basechar 0
AnchorPoint: "top" 357 711 basechar 0
LayerCount: 2
Fore
SplineSet
543 711 m 257
 543 266 l 258
 543 128 487 53 353 53 c 256
 214 53 162 128 162 266 c 258
 162 711 l 257
 84 711 l 257
 84 265 l 258
 84 104 162 -10 353 -10 c 256
 542 -10 621 108 621 264 c 258
 621 711 l 257
 543 711 l 257
EndSplineSet
EndChar

StartChar: V
Encoding: 86 86 117
Width: 695
VWidth: 0
Flags: HW
PickledData: "(dp1
S'org.pippin.gimp.org.kernagic'
p2
(dp3
S'lstem'
p4
I0
sS'rstem'
p5
I0
ssS'com.typemytype.robofont.layerData'
p6
(dp7
sS'org.robofab.postScriptHintData'
p8
(dp9
s."
LayerCount: 2
Fore
SplineSet
314 0 m 257
 376 0 l 257
 656 711 l 257
 573 711 l 257
 497 507 421 304 346 99 c 257
 272 305 194 507 118 711 c 257
 40 711 l 257
 314 0 l 257
EndSplineSet
EndChar

StartChar: W
Encoding: 87 87 118
Width: 974
VWidth: 0
Flags: HW
PickledData: "(dp1
S'org.pippin.gimp.org.kernagic'
p2
(dp3
S'lstem'
p4
I0
sS'rstem'
p5
I0
ssS'com.typemytype.robofont.layerData'
p6
(dp7
sS'org.robofab.postScriptHintData'
p8
(dp9
s."
AnchorPoint: "bot" 491 0 basechar 0
AnchorPoint: "top" 492 711 basechar 0
LayerCount: 2
Fore
SplineSet
492 604 m 257
 668 0 l 257
 744 0 l 257
 937 711 l 257
 863 711 l 257
 706 96 l 257
 529 694 l 257
 454 694 l 257
 277 102 l 257
 105 711 l 257
 38 711 l 257
 237 0 l 257
 311 0 l 257
 492 604 l 257
EndSplineSet
EndChar

StartChar: X
Encoding: 88 88 123
Width: 626
VWidth: 0
Flags: HW
PickledData: "(dp1
S'org.pippin.gimp.org.kernagic'
p2
(dp3
S'lstem'
p4
I0
sS'rstem'
p5
I0
ssS'com.typemytype.robofont.layerData'
p6
(dp7
sS'org.robofab.postScriptHintData'
p8
(dp9
s."
LayerCount: 2
Fore
SplineSet
354 355 m 257
 587 711 l 257
 505 711 l 257
 314 415 l 257
 118 711 l 257
 34 711 l 257
 268 358 l 257
 32 0 l 257
 110 0 l 257
 308 297 l 257
 504 0 l 257
 589 0 l 257
 354 355 l 257
EndSplineSet
EndChar

StartChar: Y
Encoding: 89 89 124
Width: 650
VWidth: 0
Flags: HW
PickledData: "(dp1
S'org.pippin.gimp.org.kernagic'
p2
(dp3
S'lstem'
p4
I0
sS'rstem'
p5
I0
ssS'com.typemytype.robofont.layerData'
p6
(dp7
sS'org.robofab.postScriptHintData'
p8
(dp9
s."
AnchorPoint: "top" 326 711 basechar 0
LayerCount: 2
Fore
SplineSet
367 259 m 257
 611 711 l 257
 536 711 l 257
 328 325 l 257
 109 711 l 257
 39 711 l 257
 290 260 l 257
 290 0 l 257
 367 0 l 257
 367 259 l 257
EndSplineSet
EndChar

StartChar: Z
Encoding: 90 90 129
Width: 579
VWidth: 0
Flags: HW
PickledData: "(dp1
S'org.pippin.gimp.org.kernagic'
p2
(dp3
S'lstem'
p4
I0
sS'rstem'
p5
I0
ssS'com.typemytype.robofont.layerData'
p6
(dp7
sS'org.robofab.postScriptHintData'
p8
(dp9
s."
AnchorPoint: "bot" 318 0 basechar 0
AnchorPoint: "top" 326 711 basechar 0
LayerCount: 2
Fore
SplineSet
50 0 m 257
 542 0 l 257
 546 60 l 257
 135 60 l 257
 542 656 l 257
 539 711 l 257
 67 711 l 257
 67 651 l 257
 458 651 l 257
 50 58 l 257
 50 0 l 257
EndSplineSet
EndChar

StartChar: a
Encoding: 97 97 133
Width: 544
VWidth: 0
Flags: HW
PickledData: "(dp1
S'org.pippin.gimp.org.kernagic'
p2
(dp3
S'lstem'
p4
I0
sS'rstem'
p5
I0
ssS'org.robofab.postScriptHintData'
p6
(dp7
sS'com.typemytype.robofont.guides'
p8
(tsS'com.typemytype.robofont.layerData'
p9
(dp10
sS'com.fontlab.hintData'
p11
(dp12
S'vhints'
p13
((dp14
S'position'
p15
I126
sS'width'
p16
I120
s(dp17
g15
I842
sg16
I32
s(dp18
g15
I875
sg16
I86
stp19
sS'hhints'
p20
((dp21
g15
I-15
sg16
I92
s(dp22
g15
I535
sg16
I82
s(dp23
g15
I983
sg16
I92
stp24
ss."
HStem: -7 45 261 40 480 45
VStem: 62 59 411 16 427 42
AnchorPoint: "bot" 243 0 basechar 0
AnchorPoint: "top" 272 529 basechar 0
LayerCount: 2
Fore
SplineSet
236 46 m 256
 175 46 128 70 128 141 c 256
 128 205 160 242 285 242 c 258
 287 242 l 257
 394 241 l 257
 394 125 l 257
 355 74 300 46 236 46 c 256
57 142 m 256
 57 41 125 -10 227 -10 c 256
 297 -10 353 14 399 71 c 257
 405 0 l 257
 466 0 l 257
 466 350 l 258
 466 490 386 540 269 540 c 256
 201 540 126 523 78 492 c 257
 102 435 l 257
 151 469 218 483 270 483 c 256
 353 483 394 443 394 355 c 258
 394 291 l 257
 280 292 l 257
 274 292 l 258
 117 292 57 236 57 142 c 256
EndSplineSet
Substitution2: "Single Substitution lookup 3 subtable" ordfeminine
EndChar

StartChar: acute
Encoding: 180 180 137
Width: 349
VWidth: 0
Flags: HW
PickledData: "(dp1
S'org.robofab.postScriptHintData'
p2
(dp3
sS'com.typemytype.robofont.layerData'
p4
(dp5
s."
AnchorPoint: "top" 155 528 mark 0
LayerCount: 2
Fore
SplineSet
129 590 m 257
 178 590 l 257
 318 771 l 257
 228 771 l 257
 129 590 l 257
EndSplineSet
EndChar

StartChar: ae
Encoding: 230 230 139
Width: 820
VWidth: 0
Flags: HW
PickledData: "(dp1
S'org.pippin.gimp.org.kernagic'
p2
(dp3
S'lstem'
p4
I0
sS'rstem'
p5
I0
ssS'com.fontlab.hintData'
p6
(dp7
S'vhints'
p8
((dp9
S'position'
p10
I126
sS'width'
p11
I119
s(dp12
g10
I817
sg11
I117
s(dp13
g10
I817
sg11
I82
s(dp14
g10
I1556
sg11
I98
stp15
sS'hhints'
p16
((dp17
g10
I-14
sg11
I98
s(dp18
g10
I518
sg11
I82
s(dp19
g10
I983
sg11
I92
stp20
ssS'com.typemytype.robofont.layerData'
p21
(dp22
sS'org.robofab.postScriptHintData'
p23
(dp24
s."
HStem: -7 48 253 40 480 45
VStem: 62 58 399 57 399 40 760 48
AnchorPoint: "top" 435 528 basechar 0
LayerCount: 2
Fore
SplineSet
601 481 m 256
 679 481 711 433 711 379 c 256
 711 331 691 291 536 291 c 256
 509 291 478 293 442 295 c 257
 450 414 504 481 601 481 c 256
215 47 m 256
 165 47 108 71 108 145 c 256
 108 208 133 253 257 253 c 256
 275 253 338 252 371 248 c 257
 371 240 372 176 375 168 c 257
 365 90 297 47 215 47 c 256
780 385 m 256
 780 471 715 538 600 538 c 256
 524 538 453 507 418 428 c 257
 400 510 337 538 247 538 c 256
 168 538 107 517 50 479 c 257
 81 431 l 257
 140 470 204 482 254 482 c 256
 337 482 372 445 372 354 c 258
 372 298 l 257
 337 302 268 304 248 304 c 256
 88 304 37 237 37 143 c 256
 37 42 103 -5 194 -9 c 257
 277 -9 370 20 413 101 c 257
 450 28 521 -10 607 -10 c 256
 680 -10 739 12 784 40 c 257
 761 90 l 257
 712 64 676 47 617 47 c 256
 518 47 448 100 440 243 c 257
 482 241 520 239 556 239 c 256
 692 239 780 264 780 385 c 256
EndSplineSet
EndChar

StartChar: uni2113
Encoding: 8467 8467 141
Width: 576
VWidth: 0
Flags: HW
PickledData: "(dp1
S'org.robofab.postScriptHintData'
p2
(dp3
s."
LayerCount: 2
Fore
SplineSet
287 367 m 257
 354 661 l 258
 371 733 410 760 447 760 c 256
 489 760 529 725 529 682 c 256
 529 648 476 537 391 460 c 258
 287 367 l 257
150 124 m 256
 150 29 196 -10 268 -10 c 256
 374 -10 444 48 444 48 c 257
 433 98 l 257
 383 70 340 53 300 53 c 256
 255 53 235 77 235 123 c 256
 235 145 240 172 248 204 c 258
 271 302 l 257
 417 422 l 258
 535 519 580 579 580 682 c 256
 580 780 513 822 443 822 c 256
 381 822 318 793 288 682 c 258
 187 308 l 257
 41 197 l 257
 61 163 l 257
 170 245 l 257
 157 198 150 158 150 124 c 256
EndSplineSet
EndChar

StartChar: ampersand
Encoding: 38 38 144
Width: 701
VWidth: 0
Flags: HW
PickledData: "(dp1
S'org.pippin.gimp.org.kernagic'
p2
(dp3
S'lstem'
p4
I0
sS'rstem'
p5
I0
ssS'com.fontlab.hintData'
p6
(dp7
S'vhints'
p8
((dp9
S'position'
p10
I135
sS'width'
p11
I121
s(dp12
g10
I312
sg11
I105
s(dp13
g10
I917
sg11
I110
stp14
sS'hhints'
p15
((dp16
g10
I-19
sg11
I96
s(dp17
g10
I1372
sg11
I96
stp18
ssS'com.typemytype.robofont.layerData'
p19
(dp20
sS'org.robofab.postScriptHintData'
p21
(dp22
s."
HStem: -9 47 670 47
VStem: 66 59 152 51 448 54
LayerCount: 2
Fore
SplineSet
300 667 m 256
 368 667 405 630 405 568 c 256
 405 491 334 451 258 412 c 257
 197 482 180 519 180 567 c 256
 180 626 231 667 300 667 c 256
57 187 m 256
 57 70 140 -10 282 -10 c 256
 374 -10 446 29 502 83 c 257
 594 -10 l 257
 634 32 l 257
 542 125 l 257
 594 188 629 262 655 317 c 257
 609 348 l 257
 570 271 534 211 500 167 c 257
 295 372 l 257
 384 418 470 468 470 569 c 256
 470 666 400 721 301 721 c 256
 193 721 118 658 118 566 c 256
 118 505 140 455 205 385 c 257
 110 336 57 285 57 187 c 256
294 49 m 256
 186 49 128 102 128 192 c 256
 128 263 166 303 242 345 c 257
 462 123 l 257
 408 69 356 49 294 49 c 256
EndSplineSet
EndChar

StartChar: approxequal
Encoding: 8776 8776 146
Width: 571
VWidth: 0
Flags: HW
PickledData: "(dp1
S'org.pippin.gimp.org.kernagic'
p2
(dp3
S'lstem'
p4
I0
sS'rstem'
p5
I0
ssS'com.typemytype.robofont.layerData'
p6
(dp7
S'b'
(dp8
S'name'
p9
S'approxequal'
p10
sS'lib'
p11
(dp12
sS'unicodes'
p13
(tsS'width'
p14
I1136
sS'contours'
p15
(tsS'components'
p16
(tsS'anchors'
p17
(tsssS'org.robofab.postScriptHintData'
p18
(dp19
s."
LayerCount: 2
Fore
SplineSet
410 279 m 256
 380 279 340 299 293 320 c 256
 243 343 210 355 170 355 c 256
 110 355 70 316 49 258 c 257
 69 219 l 257
 89 266 128 300 170 300 c 256
 204 300 242 282 291 260 c 256
 336 239 374 224 410 224 c 256
 468 224 503 260 523 322 c 257
 501 358 l 257
 486 312 450 279 410 279 c 256
410 444 m 256
 380 444 340 464 293 485 c 256
 243 508 210 521 170 521 c 256
 110 521 70 481 49 423 c 257
 69 384 l 257
 89 431 128 465 170 465 c 256
 204 465 242 447 291 425 c 256
 336 404 374 389 410 389 c 256
 468 389 503 425 523 487 c 257
 501 523 l 257
 486 477 450 444 410 444 c 256
EndSplineSet
EndChar

StartChar: asciicircum
Encoding: 94 94 149
Width: 619
VWidth: 0
Flags: HW
PickledData: "(dp1
S'org.pippin.gimp.org.kernagic'
p2
(dp3
S'lstem'
p4
I0
sS'rstem'
p5
I0
ssS'com.typemytype.robofont.layerData'
p6
(dp7
sS'org.robofab.postScriptHintData'
p8
(dp9
s."
LayerCount: 2
Fore
SplineSet
291 711 m 257
 51 152 l 257
 120 152 l 257
 310 603 l 257
 500 152 l 257
 569 152 l 257
 327 711 l 257
 291 711 l 257
EndSplineSet
EndChar

StartChar: asciitilde
Encoding: 126 126 150
Width: 584
VWidth: 0
Flags: HW
PickledData: "(dp1
S'org.pippin.gimp.org.kernagic'
p2
(dp3
S'lstem'
p4
I0
sS'rstem'
p5
I0
ssS'com.typemytype.robofont.layerData'
p6
(dp7
S'b'
(dp8
S'name'
p9
S'asciitilde'
p10
sS'lib'
p11
(dp12
sS'unicodes'
p13
(tsS'width'
p14
I1192
sS'contours'
p15
(tsS'components'
p16
(tsS'anchors'
p17
(tsssS'org.robofab.postScriptHintData'
p18
(dp19
s."
LayerCount: 2
Fore
SplineSet
64 242 m 257
 87 286 129 323 172 323 c 256
 207 323 245 304 298 281 c 256
 337 263 372 250 404 250 c 256
 463 250 498 286 521 348 c 257
 501 387 l 257
 485 345 445 308 404 308 c 256
 374 308 335 328 288 349 c 256
 238 371 212 382 173 382 c 256
 112 382 69 340 48 286 c 257
 64 242 l 257
EndSplineSet
EndChar

StartChar: asterisk
Encoding: 42 42 151
Width: 485
VWidth: 0
Flags: HW
PickledData: "(dp1
S'org.pippin.gimp.org.kernagic'
p2
(dp3
S'lstem'
p4
I0
sS'rstem'
p5
I0
ssS'com.typemytype.robofont.layerData'
p6
(dp7
sS'org.robofab.postScriptHintData'
p8
(dp9
s."
LayerCount: 2
Fore
SplineSet
151 293 m 257
 241 464 l 257
 339 293 l 257
 371 314 365 311 397 332 c 257
 344 398 298 463 279 488 c 257
 452 527 l 257
 433 594 l 257
 263 524 l 257
 281 715 l 257
 207 715 l 257
 224 524 l 257
 56 594 l 257
 37 527 l 257
 207 488 l 257
 92 332 l 257
 151 293 l 257
EndSplineSet
EndChar

StartChar: at
Encoding: 64 64 152
Width: 964
VWidth: 0
Flags: HW
PickledData: "(dp1
S'org.pippin.gimp.org.kernagic'
p2
(dp3
S'lstem'
p4
I0
sS'rstem'
p5
I0
ssS'com.typemytype.robofont.layerData'
p6
(dp7
sS'org.robofab.postScriptHintData'
p8
(dp9
s."
LayerCount: 2
Fore
SplineSet
445 152 m 256
 383 152 355 201 355 280 c 256
 355 396 421 478 514 478 c 256
 529 478 563 472 586 467 c 257
 564 335 l 257
 548 235 520 152 445 152 c 256
470 -104 m 256
 565 -104 658 -79 721 -36 c 257
 702 10 l 257
 635 -32 553 -49 471 -49 c 256
 266 -49 144 85 144 293 c 256
 144 508 287 670 500 670 c 256
 707 670 819 541 819 367 c 256
 819 236 759 158 695 158 c 256
 653 158 626 192 626 235 c 256
 626 297 641 381 658 491 c 257
 615 511 554 525 507 525 c 256
 367 525 292 402 292 275 c 256
 292 173 346 100 437 100 c 256
 507 100 554 155 579 216 c 257
 592 143 632 104 695 104 c 256
 780 104 876 192 876 363 c 256
 876 585 715 724 503 724 c 256
 257 724 78 542 78 294 c 256
 78 46 237 -104 470 -104 c 256
EndSplineSet
EndChar

StartChar: b
Encoding: 98 98 154
Width: 591
VWidth: 0
Flags: HW
PickledData: "(dp1
S'org.pippin.gimp.org.kernagic'
p2
(dp3
S'lstem'
p4
I0
sS'rstem'
p5
I0
ssS'org.robofab.postScriptHintData'
p6
(dp7
sS'com.typemytype.robofont.guides'
p8
(tsS'com.typemytype.robofont.layerData'
p9
(dp10
sS'com.fontlab.hintData'
p11
(dp12
S'vhints'
p13
((dp14
S'position'
p15
I193
sS'width'
p16
I125
s(dp17
g15
I193
sg16
I94
s(dp18
g15
I1018
sg16
I122
stp19
sS'hhints'
p20
((dp21
g15
I-19
sg16
I92
s(dp22
g15
I982
sg16
I92
stp23
ss."
HStem: -9 45 479 45
VStem: 94 61 94 46 497 60
AnchorPoint: "top" 320 528 basechar 0
LayerCount: 2
Fore
SplineSet
307 46 m 256
 239 46 186 75 154 125 c 257
 154 275 l 257
 154 399 206 484 315 484 c 256
 426 484 460 388 460 264 c 256
 460 135 415 46 307 46 c 256
324 540 m 256
 260 540 193 516 155 427 c 257
 157 536 l 257
 157 762 l 257
 84 752 l 257
 84 0 l 257
 141 0 l 257
 146 62 l 257
 178 21 232 -10 308 -10 c 256
 453 -10 535 100 535 264 c 256
 535 427 468 540 324 540 c 256
EndSplineSet
EndChar

StartChar: backslash
Encoding: 92 92 155
Width: 461
VWidth: 0
Flags: HW
PickledData: "(dp1
S'org.pippin.gimp.org.kernagic'
p2
(dp3
S'lstem'
p4
I0
sS'rstem'
p5
I0
ssS'com.typemytype.robofont.layerData'
p6
(dp7
S'b'
(dp8
S'name'
p9
S'backslash'
p10
sS'lib'
p11
(dp12
sS'unicodes'
p13
(tsS'width'
p14
I937
sS'contours'
p15
(tsS'components'
p16
(tsS'anchors'
p17
(tsssS'org.robofab.postScriptHintData'
p18
(dp19
s."
LayerCount: 2
Fore
SplineSet
323 -15 m 257
 379 -15 l 257
 108 719 l 257
 52 719 l 257
 323 -15 l 257
EndSplineSet
EndChar

StartChar: bar
Encoding: 124 124 156
Width: 280
VWidth: 0
Flags: HW
PickledData: "(dp1
S'org.pippin.gimp.org.kernagic'
p2
(dp3
S'lstem'
p4
I0
sS'rstem'
p5
I0
ssS'com.typemytype.robofont.layerData'
p6
(dp7
S'b'
(dp8
S'name'
p9
S'bar'
p10
sS'lib'
p11
(dp12
sS'unicodes'
p13
(tsS'width'
p14
I681
sS'contours'
p15
(tsS'components'
p16
(tsS'anchors'
p17
(tsssS'org.robofab.postScriptHintData'
p18
(dp19
s."
LayerCount: 2
Fore
SplineSet
105 729 m 257
 105 -143 l 257
 168 -143 l 257
 168 729 l 257
 105 729 l 257
EndSplineSet
EndChar

StartChar: braceleft
Encoding: 123 123 157
Width: 413
VWidth: 0
Flags: HW
PickledData: "(dp1
S'org.pippin.gimp.org.kernagic'
p2
(dp3
S'lstem'
p4
I0
sS'rstem'
p5
I0
ssS'com.typemytype.robofont.layerData'
p6
(dp7
sS'org.robofab.postScriptHintData'
p8
(dp9
s."
LayerCount: 2
Fore
SplineSet
344 -128 m 257
 344 -75 l 257
 270 -75 262 -58 262 43 c 258
 262 161 l 258
 262 248 241 285 167 297 c 257
 241 309 262 347 262 434 c 258
 262 552 l 258
 262 653 270 671 344 671 c 257
 344 724 l 257
 204 724 186 694 186 558 c 258
 186 472 l 258
 186 365 184 327 87 327 c 257
 87 268 l 257
 185 268 186 230 186 123 c 258
 186 38 l 258
 186 -98 204 -128 344 -128 c 257
EndSplineSet
EndChar

StartChar: braceright
Encoding: 125 125 158
Width: 413
VWidth: 0
Flags: HW
PickledData: "(dp1
S'org.pippin.gimp.org.kernagic'
p2
(dp3
S'lstem'
p4
I0
sS'rstem'
p5
I0
ssS'com.typemytype.robofont.layerData'
p6
(dp7
sS'org.robofab.postScriptHintData'
p8
(dp9
s."
LayerCount: 2
Fore
SplineSet
61 -128 m 257
 201 -128 218 -98 218 38 c 258
 218 123 l 258
 218 230 219 268 317 268 c 257
 317 327 l 257
 220 327 218 365 218 472 c 258
 218 558 l 258
 218 694 200 724 60 724 c 257
 60 671 l 257
 134 671 142 653 142 552 c 258
 142 434 l 258
 142 347 162 309 237 297 c 257
 162 285 142 248 142 161 c 258
 142 43 l 258
 142 -58 135 -75 61 -75 c 257
 61 -128 l 257
EndSplineSet
EndChar

StartChar: bracketleft
Encoding: 91 91 159
Width: 381
VWidth: 0
Flags: HW
PickledData: "(dp1
S'org.pippin.gimp.org.kernagic'
p2
(dp3
S'lstem'
p4
I0
sS'rstem'
p5
I0
ssS'com.typemytype.robofont.layerData'
p6
(dp7
sS'org.robofab.postScriptHintData'
p8
(dp9
s."
LayerCount: 2
Fore
SplineSet
102 -122 m 257
 325 -122 l 257
 325 -68 l 257
 179 -68 l 257
 179 675 l 257
 325 675 l 257
 325 729 l 257
 102 729 l 257
 102 -122 l 257
EndSplineSet
EndChar

StartChar: bracketright
Encoding: 93 93 160
Width: 437
VWidth: 0
Flags: HW
PickledData: "(dp1
S'org.pippin.gimp.org.kernagic'
p2
(dp3
S'lstem'
p4
I0
sS'rstem'
p5
I0
ssS'com.typemytype.robofont.layerData'
p6
(dp7
sS'org.robofab.postScriptHintData'
p8
(dp9
s."
LayerCount: 2
Fore
SplineSet
117 -122 m 257
 339 -122 l 257
 339 729 l 257
 117 729 l 257
 117 675 l 257
 263 675 l 257
 263 -68 l 257
 117 -68 l 257
 117 -122 l 257
EndSplineSet
EndChar

StartChar: breve
Encoding: 728 728 161
Width: 418
VWidth: 0
Flags: HW
PickledData: "(dp1
S'org.robofab.postScriptHintData'
p2
(dp3
sS'com.typemytype.robofont.layerData'
p4
(dp5
s."
AnchorPoint: "top" 206 519 mark 0
LayerCount: 2
Fore
SplineSet
204 625 m 256
 266 625 317 660 317 740 c 257
 271 740 l 257
 271 692 235 671 204 671 c 256
 174 671 139 692 139 740 c 257
 92 740 l 257
 92 660 142 625 204 625 c 256
EndSplineSet
EndChar

StartChar: brokenbar
Encoding: 166 166 162
Width: 260
VWidth: 0
Flags: HW
PickledData: "(dp1
S'org.pippin.gimp.org.kernagic'
p2
(dp3
S'lstem'
p4
I0
sS'rstem'
p5
I0
ssS'com.typemytype.robofont.layerData'
p6
(dp7
S'b'
(dp8
S'name'
p9
S'brokenbar'
p10
sS'lib'
p11
(dp12
sS'unicodes'
p13
(tsS'width'
p14
I653
sS'contours'
p15
(tsS'components'
p16
(tsS'anchors'
p17
(tsssS'org.robofab.postScriptHintData'
p18
(dp19
s."
LayerCount: 2
Fore
SplineSet
104 760 m 257
 104 399 l 257
 158 399 l 257
 158 760 l 257
 104 760 l 257
104 269 m 257
 104 -94 l 257
 158 -94 l 257
 158 269 l 257
 104 269 l 257
EndSplineSet
EndChar

StartChar: bullet
Encoding: 8226 8226 163
Width: 433
VWidth: 0
Flags: HW
PickledData: "(dp1
S'org.pippin.gimp.org.kernagic'
p2
(dp3
S'lstem'
p4
I0
sS'rstem'
p5
I0
ssS'com.typemytype.robofont.layerData'
p6
(dp7
S'b'
(dp8
S'name'
p9
S'bullet'
p10
sS'lib'
p11
(dp12
sS'unicodes'
p13
(tsS'width'
p14
I908
sS'contours'
p15
(tsS'components'
p16
(tsS'anchors'
p17
(tsssS'org.robofab.postScriptHintData'
p18
(dp19
s."
LayerCount: 2
Fore
SplineSet
211 207 m 256
 290 207 365 263 365 367 c 256
 365 471 292 527 214 527 c 256
 135 527 61 469 61 365 c 256
 61 262 133 207 211 207 c 256
EndSplineSet
EndChar

StartChar: c
Encoding: 99 99 164
Width: 524
VWidth: 0
Flags: HW
PickledData: "(dp1
S'org.pippin.gimp.org.kernagic'
p2
(dp3
S'lstem'
p4
I0
sS'rstem'
p5
I696
ssS'org.robofab.postScriptHintData'
p6
(dp7
sS'com.typemytype.robofont.guides'
p8
((dp9
S'y'
I417
sS'x'
I962
sS'magnetic'
p10
I5
sS'angle'
p11
F90
sS'isGlobal'
p12
I00
s(dp13
S'y'
I1020
sS'x'
I565
sg10
I5
sg11
F90
sg12
I00
s(dp14
S'y'
I994
sS'x'
I572
sg10
I5
sg11
F90
sg12
I00
stp15
sS'com.typemytype.robofont.layerData'
p16
(dp17
sS'com.fontlab.hintData'
p18
(dp19
S'vhints'
p20
((dp21
S'position'
p22
I128
sS'width'
p23
I120
stp24
sS'hhints'
p25
((dp26
g22
I-19
sg23
I92
s(dp27
g22
I982
sg23
I92
stp28
ss."
HStem: -9 45 479 45
VStem: 62 59
AnchorPoint: "bot" 293 0 basechar 0
AnchorPoint: "top" 301 529 basechar 0
LayerCount: 2
Fore
SplineSet
429 128 m 257
 405 80 364 46 295 46 c 256
 187 46 132 129 132 265 c 256
 132 401 187 484 295 484 c 256
 364 484 405 448 429 400 c 257
 436 400 l 257
 481 426 l 257
 460 482 404 540 292 540 c 256
 148 540 57 433 57 265 c 256
 57 97 148 -10 292 -10 c 256
 404 -10 461 48 481 104 c 257
 436 128 l 257
 429 128 l 257
EndSplineSet
EndChar

StartChar: caron
Encoding: 711 711 166
Width: 431
VWidth: 0
Flags: HW
PickledData: "(dp1
S'org.robofab.postScriptHintData'
p2
(dp3
sS'com.typemytype.robofont.layerData'
p4
(dp5
s."
AnchorPoint: "top" 213 528 mark 0
LayerCount: 2
Fore
SplineSet
167 599 m 257
 248 599 l 257
 341 763 l 257
 279 763 l 257
 208 648 l 257
 136 763 l 257
 73 763 l 257
 167 599 l 257
EndSplineSet
EndChar

StartChar: caron.alt
Encoding: 65537 -1 167
Width: 374
VWidth: 0
Flags: HW
PickledData: "(dp1
S'org.robofab.postScriptHintData'
p2
(dp3
sS'com.typemytype.robofont.layerData'
p4
(dp5
s."
AnchorPoint: "caron.alt" 130 528 mark 0
LayerCount: 2
Fore
SplineSet
241 571 m 257
 297 571 l 257
 338 751 l 257
 262 751 l 257
 241 571 l 257
EndSplineSet
EndChar

StartChar: cedilla
Encoding: 184 184 172
Width: 325
VWidth: 0
Flags: HW
PickledData: "(dp1
S'org.robofab.postScriptHintData'
p2
(dp3
sS'com.typemytype.robofont.layerData'
p4
(dp5
s."
AnchorPoint: "bot" 182 4 mark 0
LayerCount: 2
Fore
SplineSet
236 -97 m 256
 236 -137 201 -156 160 -156 c 256
 140 -156 119 -152 99 -142 c 257
 85 -178 l 257
 108 -189 134 -194 161 -194 c 256
 231 -194 283 -158 283 -99 c 256
 283 -46 245 -20 200 -20 c 256
 184 -20 168 -23 151 -29 c 257
 151 -52 l 257
 162 -50 172 -49 181 -49 c 256
 226 -49 236 -75 236 -97 c 256
EndSplineSet
EndChar

StartChar: cent
Encoding: 162 162 173
Width: 518
VWidth: 0
Flags: HW
PickledData: "(dp1
S'org.pippin.gimp.org.kernagic'
p2
(dp3
S'lstem'
p4
I0
sS'rstem'
p5
I0
ssS'com.typemytype.robofont.layerData'
p6
(dp7
sS'org.robofab.postScriptHintData'
p8
(dp9
s."
LayerCount: 2
Fore
SplineSet
263 14 m 257
 263 -149 l 257
 315 -149 l 257
 323 14 l 257
 263 14 l 257
268 677 m 257
 262 519 l 257
 318 519 l 257
 318 677 l 257
 268 677 l 257
EndSplineSet
Refer: 164 99 N 1 0 0 1 0 0 2
EndChar

StartChar: circumflex
Encoding: 710 710 174
Width: 426
VWidth: 0
Flags: HW
PickledData: "(dp1
S'org.robofab.postScriptHintData'
p2
(dp3
sS'com.typemytype.robofont.layerData'
p4
(dp5
s."
AnchorPoint: "top" 210 528 mark 0
LayerCount: 2
Fore
SplineSet
73 604 m 257
 135 604 l 257
 207 718 l 257
 279 604 l 257
 341 604 l 257
 247 767 l 257
 167 767 l 257
 73 604 l 257
EndSplineSet
EndChar

StartChar: colon
Encoding: 58 58 175
Width: 300
VWidth: 0
Flags: HW
PickledData: "(dp1
S'org.pippin.gimp.org.kernagic'
p2
(dp3
S'lstem'
p4
I0
sS'rstem'
p5
I0
ssS'com.typemytype.robofont.layerData'
p6
(dp7
S'b'
(dp8
S'name'
p9
S'colon'
p10
sS'lib'
p11
(dp12
sS'unicodes'
p13
(tsS'width'
p14
I653
sS'contours'
p15
(tsS'components'
p16
(tsS'anchors'
p17
(tsssS'org.robofab.postScriptHintData'
p18
(dp19
s."
LayerCount: 2
Fore
SplineSet
147 -6 m 256
 186 -6 200 22 200 49 c 256
 200 76 186 105 147 105 c 256
 108 105 92 76 92 49 c 256
 92 22 109 -6 147 -6 c 256
147 415 m 256
 186 415 200 443 200 470 c 256
 200 497 186 526 147 526 c 256
 108 526 92 497 92 470 c 256
 92 443 109 415 147 415 c 256
EndSplineSet
EndChar

StartChar: comma
Encoding: 44 44 176
Width: 287
VWidth: 0
Flags: HW
PickledData: "(dp1
S'org.pippin.gimp.org.kernagic'
p2
(dp3
S'lstem'
p4
I0
sS'rstem'
p5
I0
ssS'com.typemytype.robofont.layerData'
p6
(dp7
sS'org.robofab.postScriptHintData'
p8
(dp9
s."
LayerCount: 2
Fore
SplineSet
91 -146 m 257
 132 -146 l 257
 132 -146 186 71 186 76 c 258
 186 111 l 257
 107 111 l 257
 107 99 91 -146 91 -146 c 257
EndSplineSet
EndChar

StartChar: copyright
Encoding: 169 169 177
Width: 858
VWidth: 0
Flags: HW
PickledData: "(dp1
S'org.pippin.gimp.org.kernagic'
p2
(dp3
S'lstem'
p4
I0
sS'rstem'
p5
I0
ssS'com.typemytype.robofont.layerData'
p6
(dp7
sS'org.robofab.postScriptHintData'
p8
(dp9
s."
LayerCount: 2
Fore
SplineSet
390 -13 m 256
 577 -13 769 110 769 358 c 256
 769 607 577 730 390 730 c 256
 205 730 18 607 18 358 c 256
 18 110 205 -13 390 -13 c 256
390 26 m 256
 226 26 63 137 63 358 c 256
 63 579 226 690 390 690 c 256
 555 690 719 579 719 358 c 256
 719 138 555 26 390 26 c 256
402 113 m 256
 450 113 498 126 541 154 c 257
 525 193 l 257
 482 167 443 158 403 158 c 256
 303 158 222 235 222 360 c 256
 222 475 302 556 399 556 c 256
 435 556 482 543 519 516 c 257
 540 557 l 257
 496 587 447 601 398 601 c 256
 272 601 164 498 164 358 c 256
 164 214 274 113 402 113 c 256
EndSplineSet
EndChar

StartChar: currency
Encoding: 164 164 178
Width: 598
VWidth: 0
Flags: HW
PickledData: "(dp1
S'org.pippin.gimp.org.kernagic'
p2
(dp3
S'lstem'
p4
I0
sS'rstem'
p5
I0
ssS'com.typemytype.robofont.layerData'
p6
(dp7
S'b'
(dp8
S'name'
p9
S'currency'
p10
sS'lib'
p11
(dp12
sS'unicodes'
p13
(tsS'width'
p14
I1164
sS'contours'
p15
(tsS'components'
p16
(tsS'anchors'
p17
(tsssS'org.robofab.postScriptHintData'
p18
(dp19
s."
LayerCount: 2
Fore
SplineSet
449 350 m 256
 449 264 391 189 295 189 c 256
 200 189 143 264 143 350 c 256
 143 436 200 510 295 510 c 256
 391 510 449 436 449 350 c 256
424 504 m 257
 389 534 344 551 295 551 c 256
 247 551 203 534 167 504 c 257
 79 589 l 257
 50 560 l 257
 140 473 l 257
 113 437 99 395 99 350 c 256
 99 305 113 263 140 227 c 257
 51 141 l 257
 79 111 l 257
 167 196 l 257
 202 166 246 149 295 149 c 256
 344 149 389 165 424 195 c 257
 513 110 l 257
 540 140 l 257
 452 227 l 257
 478 262 492 304 492 350 c 256
 492 394 479 435 452 473 c 257
 540 559 l 257
 513 589 l 257
 424 504 l 257
EndSplineSet
EndChar

StartChar: d
Encoding: 100 100 179
Width: 587
VWidth: 0
Flags: HW
PickledData: "(dp1
S'org.pippin.gimp.org.kernagic'
p2
(dp3
S'lstem'
p4
I0
sS'rstem'
p5
I0
ssS'com.fontlab.hintData'
p6
(dp7
S'vhints'
p8
((dp9
S'position'
p10
I114
sS'width'
p11
I166
s(dp12
g10
I907
sg11
I161
s(dp13
g10
I930
sg11
I138
stp14
sS'hhints'
p15
((dp16
g10
I-19
sg11
I127
s(dp17
g10
I953
sg11
I127
stp18
ssS'com.typemytype.robofont.layerData'
p19
(dp20
sS'org.robofab.postScriptHintData'
p21
(dp22
s."
HStem: -9 62 465 62
VStem: 56 81 443 79 454 67
AnchorPoint: "caron.alt" 547 579 basechar 0
AnchorPoint: "top" 270 528 basechar 0
LayerCount: 2
Fore
SplineSet
290 46 m 256
 185 46 132 131 132 268 c 256
 132 400 186 484 291 484 c 256
 353 484 409 458 438 408 c 257
 438 114 l 257
 407 69 353 46 290 46 c 256
286 -10 m 256
 342 -10 405 13 444 60 c 257
 449 0 l 257
 511 0 l 257
 511 762 l 257
 435 752 l 257
 435 566 l 257
 438 478 l 257
 407 515 357 539 292 539 c 258
 289 539 l 257
 287 539 l 258
 144 539 57 432 57 267 c 256
 57 101 139 -10 286 -10 c 256
EndSplineSet
EndChar

StartChar: dagger
Encoding: 8224 8224 180
Width: 502
VWidth: 0
Flags: HW
PickledData: "(dp1
S'org.pippin.gimp.org.kernagic'
p2
(dp3
S'lstem'
p4
I0
sS'rstem'
p5
I0
ssS'com.typemytype.robofont.layerData'
p6
(dp7
S'b'
(dp8
S'name'
p9
S'dagger'
p10
sS'lib'
p11
(dp12
sS'unicodes'
p13
(tsS'width'
p14
I1050
sS'contours'
p15
(tsS'components'
p16
(tsS'anchors'
p17
(tsssS'org.robofab.postScriptHintData'
p18
(dp19
s."
LayerCount: 2
Fore
SplineSet
225 726 m 257
 225 536 l 257
 85 536 l 257
 85 493 l 257
 225 493 l 257
 225 59 l 257
 272 59 l 257
 272 493 l 257
 412 493 l 257
 412 536 l 257
 270 536 l 257
 270 726 l 257
 225 726 l 257
EndSplineSet
EndChar

StartChar: daggerdbl
Encoding: 8225 8225 181
Width: 502
VWidth: 0
Flags: HW
PickledData: "(dp1
S'org.pippin.gimp.org.kernagic'
p2
(dp3
S'lstem'
p4
I0
sS'rstem'
p5
I0
ssS'com.typemytype.robofont.layerData'
p6
(dp7
S'b'
(dp8
S'name'
p9
S'daggerdbl'
p10
sS'lib'
p11
(dp12
sS'unicodes'
p13
(tsS'width'
p14
I1022
sS'contours'
p15
(tsS'components'
p16
(tsS'anchors'
p17
(tsssS'org.robofab.postScriptHintData'
p18
(dp19
s."
LayerCount: 2
Fore
SplineSet
223 718 m 257
 223 528 l 257
 86 528 l 257
 86 486 l 257
 223 486 l 257
 223 267 l 257
 86 267 l 257
 86 226 l 257
 223 226 l 257
 223 46 l 257
 271 46 l 257
 271 226 l 257
 404 226 l 257
 404 267 l 257
 271 267 l 257
 271 486 l 257
 405 486 l 257
 405 528 l 257
 269 528 l 257
 269 718 l 257
 223 718 l 257
EndSplineSet
EndChar

StartChar: degree
Encoding: 176 176 184
Width: 426
VWidth: 0
Flags: HW
PickledData: "(dp1
S'org.pippin.gimp.org.kernagic'
p2
(dp3
S'lstem'
p4
I0
sS'rstem'
p5
I0
ssS'com.typemytype.robofont.layerData'
p6
(dp7
sS'org.robofab.postScriptHintData'
p8
(dp9
s."
LayerCount: 2
Fore
SplineSet
209 438 m 256
 287 438 356 498 356 581 c 256
 356 666 285 723 209 723 c 256
 135 723 64 666 64 581 c 256
 64 495 135 438 209 438 c 256
209 481 m 256
 155 481 113 522 113 581 c 256
 113 639 157 679 210 679 c 256
 264 679 307 639 307 581 c 256
 307 523 264 481 209 481 c 256
EndSplineSet
EndChar

StartChar: dieresis
Encoding: 168 168 185
Width: 435
VWidth: 0
Flags: HW
PickledData: "(dp1
S'org.robofab.postScriptHintData'
p2
(dp3
sS'com.typemytype.robofont.layerData'
p4
(dp5
s."
AnchorPoint: "top" 217 528 mark 0
LayerCount: 2
Fore
SplineSet
312 639 m 256
 345 639 358 660 358 685 c 256
 358 710 345 732 312 732 c 256
 278 732 267 710 267 685 c 256
 267 660 279 639 312 639 c 256
111 639 m 256
 144 639 156 660 156 685 c 256
 156 710 144 732 111 732 c 256
 77 732 65 710 65 685 c 256
 65 660 78 639 111 639 c 256
EndSplineSet
EndChar

StartChar: divide
Encoding: 247 247 186
Width: 554
VWidth: 0
Flags: HW
PickledData: "(dp1
S'org.pippin.gimp.org.kernagic'
p2
(dp3
S'lstem'
p4
I0
sS'rstem'
p5
I0
ssS'com.typemytype.robofont.layerData'
p6
(dp7
sS'org.robofab.postScriptHintData'
p8
(dp9
s."
LayerCount: 2
Fore
SplineSet
232 529 m 257
 232 436 l 257
 320 436 l 257
 320 529 l 257
 232 529 l 257
232 111 m 257
 232 17 l 257
 319 17 l 257
 319 111 l 257
 232 111 l 257
46 312 m 257
 46 249 l 257
 504 249 l 257
 504 312 l 257
 46 312 l 257
EndSplineSet
EndChar

StartChar: dollar
Encoding: 36 36 187
Width: 593
VWidth: 0
Flags: HW
PickledData: "(dp1
S'org.pippin.gimp.org.kernagic'
p2
(dp3
S'lstem'
p4
I0
sS'rstem'
p5
I0
ssS'com.typemytype.robofont.layerData'
p6
(dp7
S'b'
(dp8
S'name'
p9
S'dollar'
p10
sS'lib'
p11
(dp12
sS'unicodes'
p13
(tsS'width'
p14
I1221
sS'contours'
p15
(tsS'components'
p16
(tsS'anchors'
p17
(tsssS'org.robofab.postScriptHintData'
p18
(dp19
s."
LayerCount: 2
Fore
SplineSet
271 17 m 257
 271 -149 l 257
 323 -149 l 257
 330 17 l 257
 271 17 l 257
280 856 m 257
 273 698 l 257
 334 698 l 257
 334 856 l 257
 280 856 l 257
EndSplineSet
Refer: 94 83 N 1 0 0 1 0 0 2
EndChar

StartChar: dotaccent
Encoding: 729 729 188
Width: 197
VWidth: 0
Flags: HW
PickledData: "(dp1
S'org.robofab.postScriptHintData'
p2
(dp3
sS'com.typemytype.robofont.layerData'
p4
(dp5
s."
AnchorPoint: "top" 98 528 mark 0
LayerCount: 2
Fore
SplineSet
154 695 m 256
 154 729 134 749 98 749 c 256
 62 749 42 729 42 695 c 256
 42 661 62 640 98 640 c 256
 134 640 154 661 154 695 c 256
EndSplineSet
EndChar

StartChar: dotlessi
Encoding: 305 305 189
Width: 247
VWidth: 0
Flags: HW
PickledData: "(dp1
S'org.pippin.gimp.org.kernagic'
p2
(dp3
S'lstem'
p4
I0
sS'rstem'
p5
I0
ssS'com.typemytype.robofont.layerData'
p6
(dp7
sS'org.robofab.postScriptHintData'
p8
(dp9
s."
AnchorPoint: "top" 131 528 basechar 0
LayerCount: 2
Fore
SplineSet
92 528 m 257
 92 0 l 257
 165 0 l 257
 165 528 l 257
 92 528 l 257
EndSplineSet
EndChar

StartChar: e
Encoding: 101 101 190
Width: 550
VWidth: 0
Flags: HW
PickledData: "(dp1
S'org.pippin.gimp.org.kernagic'
p2
(dp3
S'lstem'
p4
I0
sS'rstem'
p5
I747
ssS'com.fontlab.hintData'
p6
(dp7
S'hhints'
p8
((dp9
S'position'
p10
I-19
sS'width'
p11
I94
s(dp12
g10
I982
sg11
I92
stp13
ssS'com.typemytype.robofont.layerData'
p14
(dp15
sS'org.robofab.postScriptHintData'
p16
(dp17
s."
HStem: -9 46 479 45
AnchorPoint: "bot" 301 0 basechar 0
AnchorPoint: "top" 297 528 basechar 0
LayerCount: 2
Fore
SplineSet
133 304 m 257
 143 412 206 483 299 483 c 256
 391 483 433 418 435 304 c 257
 133 304 l 257
493 255 m 257
 493 257 497 291 497 304 c 256
 497 450 420 540 296 540 c 256
 167 540 57 440 57 263 c 256
 57 95 164 -10 304 -10 c 256
 377 -10 437 11 482 40 c 257
 464 90 l 257
 458 90 l 257
 413 65 373 46 313 46 c 256
 214 46 138 109 131 255 c 257
 493 255 l 257
EndSplineSet
EndChar

StartChar: eight
Encoding: 56 56 198
Width: 604
VWidth: 0
Flags: HW
PickledData: "(dp1
S'org.pippin.gimp.org.kernagic'
p2
(dp3
S'lstem'
p4
I0
sS'rstem'
p5
I0
ssS'com.typemytype.robofont.layerData'
p6
(dp7
sS'org.robofab.postScriptHintData'
p8
(dp9
s."
LayerCount: 2
Fore
SplineSet
302 397 m 257
 208 418 161 468 161 548 c 256
 161 621 217 664 302 664 c 256
 387 664 442 621 442 548 c 256
 442 468 396 418 302 397 c 257
302 49 m 256
 197 49 142 95 142 183 c 256
 142 272 211 322 302 342 c 257
 393 322 461 269 461 184 c 256
 461 92 410 49 302 49 c 256
302 -10 m 256
 427 -10 530 50 530 176 c 256
 530 269 470 344 377 373 c 257
 459 401 514 455 514 545 c 256
 514 657 428 721 303 721 c 256
 178 721 89 657 89 545 c 256
 89 456 150 396 228 372 c 257
 130 339 74 278 74 176 c 256
 74 51 177 -10 302 -10 c 256
EndSplineSet
EndChar

StartChar: emdash
Encoding: 8212 8212 201
Width: 1055
VWidth: 0
Flags: HW
PickledData: "(dp1
S'org.robofab.postScriptHintData'
p2
(dp3
sS'com.typemytype.robofont.layerData'
p4
(dp5
s."
LayerCount: 2
Fore
SplineSet
29 260 m 257
 1026 260 l 257
 1026 320 l 257
 29 320 l 257
 29 260 l 257
EndSplineSet
EndChar

StartChar: emptyset
Encoding: 8709 8709 202
Width: 819
VWidth: 0
Flags: HW
LayerCount: 2
Fore
SplineSet
55 358 m 256
 55 562 224 719 406 719 c 256
 491 719 574 685 637 628 c 257
 723 725 l 257
 741 711 l 257
 653 612 l 257
 716 548 758 459 758 358 c 256
 758 154 588 -3 406 -3 c 256
 323 -3 243 29 180 84 c 257
 86 -21 l 257
 71 -7 l 257
 165 99 l 257
 99 164 55 255 55 358 c 256
194 100 m 257
 253 49 328 18 406 18 c 256
 577 18 737 167 737 358 c 256
 737 452 699 536 639 597 c 257
 194 100 l 257
179 114 m 257
 623 612 l 257
 563 666 486 698 406 698 c 256
 235 698 76 549 76 358 c 256
 76 261 117 175 179 114 c 257
EndSplineSet
EndChar

StartChar: endash
Encoding: 8211 8211 203
Width: 650
VWidth: 0
Flags: HW
PickledData: "(dp1
S'org.pippin.gimp.org.kernagic'
p2
(dp3
S'lstem'
p4
I0
sS'rstem'
p5
I0
ssS'com.typemytype.robofont.layerData'
p6
(dp7
sS'org.robofab.postScriptHintData'
p8
(dp9
s."
LayerCount: 2
Fore
SplineSet
42 264 m 257
 608 264 l 257
 608 320 l 257
 42 320 l 257
 42 264 l 257
EndSplineSet
EndChar

StartChar: eng
Encoding: 331 331 204
Width: 579
VWidth: 0
Flags: HW
PickledData: "(dp1
S'org.robofab.postScriptHintData'
p2
(dp3
sS'com.typemytype.robofont.layerData'
p4
(dp5
s."
LayerCount: 2
Fore
SplineSet
432 75 m 257
 432 -4 l 257
 432 -112 413 -147 230 -147 c 257
 232 -205 l 257
 445 -205 505 -158 505 -6 c 258
 505 75 l 257
 432 75 l 257
EndSplineSet
Refer: 271 110 N 1 0 0 1 0 0 2
EndChar

StartChar: equal
Encoding: 61 61 206
Width: 513
VWidth: 0
Flags: HW
PickledData: "(dp1
S'org.pippin.gimp.org.kernagic'
p2
(dp3
S'lstem'
p4
I0
sS'rstem'
p5
I0
ssS'com.typemytype.robofont.layerData'
p6
(dp7
S'b'
(dp8
S'name'
p9
S'equal'
p10
sS'lib'
p11
(dp12
sS'unicodes'
p13
(tsS'width'
p14
I1050
sS'contours'
p15
(tsS'components'
p16
(tsS'anchors'
p17
(tsssS'org.robofab.postScriptHintData'
p18
(dp19
s."
LayerCount: 2
Fore
SplineSet
64 271 m 257
 64 207 l 257
 453 207 l 257
 453 271 l 257
 64 271 l 257
64 458 m 257
 64 394 l 257
 453 394 l 257
 453 458 l 257
 64 458 l 257
EndSplineSet
EndChar

StartChar: estimated
Encoding: 8494 8494 207
Width: 536
VWidth: 0
Flags: HW
PickledData: "(dp1
S'org.robofab.postScriptHintData'
p2
(dp3
sS'com.typemytype.robofont.layerData'
p4
(dp5
S'b'
(dp6
S'name'
p7
S'estimated'
p8
sS'lib'
p9
(dp10
sS'unicodes'
p11
(tsS'width'
p12
I1223
sS'contours'
p13
(tsS'components'
p14
(tsS'anchors'
p15
(tsss."
LayerCount: 2
Fore
SplineSet
472 278 m 257
 153 278 l 257
 160 400 229 483 310 483 c 256
 407 483 472 387 472 278 c 257
51 250 m 256
 51 102 137 -10 315 -10 c 256
 411 -10 475 32 521 87 c 257
 496 110 l 257
 451 62 398 24 315 24 c 256
 209 24 152 113 152 241 c 257
 524 241 l 257
 524 403 455 511 307 511 c 256
 157 511 51 398 51 250 c 256
EndSplineSet
EndChar

StartChar: eth
Encoding: 240 240 208
Width: 610
VWidth: 0
Flags: HW
PickledData: "(dp1
S'org.pippin.gimp.org.kernagic'
p2
(dp3
S'lstem'
p4
I0
sS'rstem'
p5
I0
ssS'com.typemytype.robofont.layerData'
p6
(dp7
sS'org.robofab.postScriptHintData'
p8
(dp9
s."
LayerCount: 2
Fore
SplineSet
474 244 m 256
 474 124 416 46 302 46 c 256
 185 46 130 142 130 238 c 256
 130 342 193 421 299 421 c 256
 412 421 474 334 474 244 c 256
121 779 m 257
 228 679 l 257
 114 635 l 257
 136 586 l 257
 262 636 l 257
 362 538 412 468 438 415 c 257
 410 439 373 477 293 477 c 256
 157 477 59 382 59 239 c 256
 59 110 139 -11 299 -11 c 256
 463 -11 540 101 540 241 c 256
 540 307 524 377 500 426 c 256
 468 488 420 553 320 660 c 257
 447 708 l 257
 425 755 l 257
 282 700 l 257
 203 779 l 257
 121 779 l 257
EndSplineSet
EndChar

StartChar: exclam
Encoding: 33 33 209
Width: 327
VWidth: 0
Flags: HW
PickledData: "(dp1
S'org.pippin.gimp.org.kernagic'
p2
(dp3
S'lstem'
p4
I0
sS'rstem'
p5
I0
ssS'com.typemytype.robofont.layerData'
p6
(dp7
sS'org.robofab.postScriptHintData'
p8
(dp9
s."
LayerCount: 2
Fore
SplineSet
160 -7 m 256
 199 -7 214 21 214 48 c 256
 214 74 199 102 160 102 c 256
 121 102 107 74 107 48 c 256
 107 22 121 -7 160 -7 c 256
145 207 m 257
 173 207 l 257
 198 661 l 257
 198 714 l 257
 117 714 l 257
 117 661 l 257
 145 207 l 257
EndSplineSet
EndChar

StartChar: f
Encoding: 102 102 211
Width: 365
VWidth: 0
Flags: HW
PickledData: "(dp1
S'org.pippin.gimp.org.kernagic'
p2
(dp3
S'lstem'
p4
I182
sS'rstem'
p5
I417
ssS'com.fontlab.hintData'
p6
(dp7
S'vhints'
p8
((dp9
S'position'
p10
I269
sS'width'
p11
I166
stp12
sS'hhints'
p13
((dp14
g10
I952
sg11
I89
s(dp15
g10
I1358
sg11
I122
stp16
ssS'com.typemytype.robofont.layerData'
p17
(dp18
sS'org.robofab.postScriptHintData'
p19
(dp20
s."
HStem: 465 43 663 60
VStem: 131 81
AnchorPoint: "top" 192 711 basechar 0
LayerCount: 2
Fore
SplineSet
348 732 m 257
 348 732 312 740 276 740 c 256
 182 740 132 709 132 568 c 258
 132 527 l 257
 37 521 l 257
 35 483 l 257
 132 483 l 257
 132 0 l 257
 205 0 l 257
 205 483 l 257
 337 483 l 257
 337 528 l 257
 205 528 l 257
 205 568 l 258
 205 666 225 686 292 686 c 256
 311 686 343 682 343 682 c 257
 348 732 l 257
EndSplineSet
EndChar

StartChar: five
Encoding: 53 53 212
Width: 604
VWidth: 0
Flags: HW
PickledData: "(dp1
S'org.pippin.gimp.org.kernagic'
p2
(dp3
S'lstem'
p4
I0
sS'rstem'
p5
I0
ssS'com.typemytype.robofont.layerData'
p6
(dp7
sS'org.robofab.postScriptHintData'
p8
(dp9
s."
LayerCount: 2
Fore
SplineSet
319 396 m 256
 418 396 465 313 465 228 c 256
 465 134 404 54 295 54 c 256
 227 54 179 78 135 128 c 257
 128 128 l 257
 86 85 l 257
 122 39 197 -10 295 -10 c 256
 456 -10 544 102 544 229 c 256
 544 343 471 453 328 453 c 256
 271 453 229 434 192 402 c 257
 215 651 l 257
 494 651 l 257
 501 711 l 257
 145 711 l 257
 123 344 l 257
 186 335 l 257
 217 373 267 396 319 396 c 256
EndSplineSet
EndChar

StartChar: florin
Encoding: 402 402 214
Width: 485
VWidth: 0
Flags: HW
PickledData: "(dp1
S'org.robofab.postScriptHintData'
p2
(dp3
s."
LayerCount: 2
Fore
SplineSet
266 598 m 258
 247 502 l 257
 168 502 l 257
 161 464 l 257
 241 464 l 257
 146 63 l 258
 129 -10 135 -81 51 -81 c 256
 38 -81 24 -79 7 -76 c 257
 -0 -113 l 257
 16 -117 31 -120 46 -120 c 256
 126 -120 189 -58 217 62 c 258
 312 464 l 257
 420 464 l 257
 427 502 l 257
 320 502 l 257
 339 603 l 258
 350 658 364 703 412 703 c 256
 441 703 456 678 456 627 c 257
 514 627 l 257
 514 717 465 741 409 741 c 256
 324 741 283 682 266 598 c 258
EndSplineSet
EndChar

StartChar: foundryicon
Encoding: 65539 -1 215
Width: 657
VWidth: 0
Flags: HW
PickledData: "(dp1
S'org.robofab.postScriptHintData'
p2
(dp3
s."
LayerCount: 2
Fore
SplineSet
137 1 m 257
 327 136 l 257
 521 1 l 257
 450 225 l 257
 641 369 l 257
 404 369 l 257
 327 593 l 257
 253 369 l 257
 17 369 l 257
 207 225 l 257
 137 1 l 257
237 198 m 257
 237 328 l 257
 289 328 l 257
 372 255 l 257
 372 328 l 257
 423 328 l 257
 423 198 l 257
 372 198 l 257
 289 270 l 257
 289 198 l 257
 237 198 l 257
EndSplineSet
EndChar

StartChar: four
Encoding: 52 52 216
Width: 604
VWidth: 0
Flags: HW
PickledData: "(dp1
S'org.pippin.gimp.org.kernagic'
p2
(dp3
S'lstem'
p4
I0
sS'rstem'
p5
I0
ssS'com.typemytype.robofont.layerData'
p6
(dp7
sS'org.robofab.postScriptHintData'
p8
(dp9
s."
LayerCount: 2
Fore
SplineSet
143 247 m 257
 388 615 l 257
 388 247 l 257
 143 247 l 257
388 0 m 257
 459 0 l 257
 459 187 l 257
 538 187 l 257
 543 247 l 257
 459 247 l 257
 459 711 l 257
 386 711 l 257
 66 251 l 257
 86 187 l 257
 388 187 l 257
 388 0 l 257
EndSplineSet
EndChar

StartChar: fraction
Encoding: 8260 8260 217
Width: 520
VWidth: 0
Flags: HW
PickledData: "(dp1
S'org.robofab.postScriptHintData'
p2
(dp3
s."
LayerCount: 2
Fore
SplineSet
73 0 m 257
 137 0 l 257
 447 723 l 257
 382 723 l 257
 73 0 l 257
EndSplineSet
EndChar

StartChar: g
Encoding: 103 103 218
Width: 592
VWidth: 0
Flags: HW
PickledData: "(dp1
S'org.pippin.gimp.org.kernagic'
p2
(dp3
S'lstem'
p4
I0
sS'rstem'
p5
I0
ssS'com.fontlab.hintData'
p6
(dp7
S'vhints'
p8
((dp9
S'position'
p10
I128
sS'width'
p11
I122
s(dp12
g10
I977
sg11
I125
s(dp13
g10
I977
sg11
I36
stp14
sS'hhints'
p15
((dp16
g10
I-426
sg11
I101
s(dp17
g10
I0
sg11
I93
s(dp18
g10
I982
sg11
I92
stp19
ssS'com.typemytype.robofont.layerData'
p20
(dp21
sS'org.robofab.postScriptHintData'
p22
(dp23
s."
HStem: -208 49 0 45 479 45
VStem: 62 60 477 61 477 18
AnchorPoint: "top" 296 528 basechar 0
LayerCount: 2
Fore
SplineSet
291 48 m 256
 179 48 132 140 132 265 c 256
 132 388 180 484 291 484 c 256
 364 484 410 449 440 403 c 257
 440 121 l 257
 414 82 365 48 291 48 c 256
288 -8 m 256
 343 -8 402 10 441 55 c 257
 441 11 l 258
 441 -129 386 -174 273 -174 c 256
 227 -174 171 -163 134 -147 c 257
 125 -147 l 257
 119 -206 l 257
 155 -220 213 -232 273 -232 c 256
 452 -232 511 -143 511 30 c 258
 511 528 l 257
 449 528 l 257
 445 467 l 257
 414 509 363 540 291 540 c 256
 137 540 57 421 57 265 c 256
 57 112 133 -8 288 -8 c 256
EndSplineSet
EndChar

StartChar: germandbls
Encoding: 223 223 224
Width: 614
VWidth: 0
Flags: HW
PickledData: "(dp1
S'org.pippin.gimp.org.kernagic'
p2
(dp3
S'lstem'
p4
I0
sS'rstem'
p5
I0
ssS'com.typemytype.robofont.layerData'
p6
(dp7
S'b'
(dp8
S'name'
p9
S'germandbls'
p10
sS'lib'
p11
(dp12
sS'unicodes'
p13
(tsS'width'
p14
I1278
sS'contours'
p15
(tsS'components'
p16
(tsS'anchors'
p17
(tsssS'org.robofab.postScriptHintData'
p18
(dp19
s."
LayerCount: 2
Fore
SplineSet
408 -10 m 256
 504 -10 562 50 562 142 c 256
 562 286 370 336 370 395 c 256
 370 442 475 500 475 603 c 256
 475 692 409 755 300 755 c 256
 154 755 86 669 86 525 c 258
 86 0 l 257
 159 0 l 257
 159 528 l 258
 159 652 209 697 302 697 c 256
 371 697 404 659 404 604 c 256
 404 500 303 470 303 388 c 256
 303 291 492 245 492 139 c 256
 492 95 466 50 401 50 c 256
 344 50 290 70 262 85 c 257
 241 29 l 257
 276 10 344 -10 408 -10 c 256
EndSplineSet
EndChar

StartChar: grave
Encoding: 96 96 225
Width: 434
VWidth: 0
Flags: HW
PickledData: "(dp1
S'org.robofab.postScriptHintData'
p2
(dp3
sS'com.typemytype.robofont.layerData'
p4
(dp5
s."
AnchorPoint: "top" 221 519 mark 0
LayerCount: 2
Fore
SplineSet
195 590 m 257
 244 590 l 257
 146 771 l 257
 49 771 l 257
 195 590 l 257
EndSplineSet
EndChar

StartChar: greater
Encoding: 62 62 226
Width: 553
VWidth: 0
Flags: HW
PickledData: "(dp1
S'org.pippin.gimp.org.kernagic'
p2
(dp3
S'lstem'
p4
I0
sS'rstem'
p5
I0
ssS'com.typemytype.robofont.layerData'
p6
(dp7
S'b'
(dp8
S'name'
p9
S'greater'
p10
sS'lib'
p11
(dp12
sS'unicodes'
p13
(tsS'width'
p14
I1107
sS'contours'
p15
(tsS'components'
p16
(tsS'anchors'
p17
(tsssS'org.robofab.postScriptHintData'
p18
(dp19
s."
LayerCount: 2
Fore
SplineSet
52 502 m 257
 421 307 l 257
 51 131 l 257
 51 66 l 257
 506 284 l 257
 506 325 l 257
 52 567 l 257
 52 502 l 257
EndSplineSet
EndChar

StartChar: greaterequal
Encoding: 8805 8805 227
Width: 587
VWidth: 0
Flags: HW
PickledData: "(dp1
S'org.pippin.gimp.org.kernagic'
p2
(dp3
S'lstem'
p4
I0
sS'rstem'
p5
I0
ssS'com.typemytype.robofont.layerData'
p6
(dp7
S'b'
(dp8
S'name'
p9
S'greaterequal'
p10
sS'lib'
p11
(dp12
sS'unicodes'
p13
(tsS'width'
p14
I1192
sS'contours'
p15
(tsS'components'
p16
(tsS'anchors'
p17
(tsssS'org.robofab.postScriptHintData'
p18
(dp19
s."
LayerCount: 2
Fore
SplineSet
62 4 m 257
 521 4 l 257
 521 62 l 257
 62 62 l 257
 62 4 l 257
79 116 m 257
 511 352 l 257
 511 388 l 257
 81 639 l 257
 81 576 l 257
 439 370 l 257
 79 178 l 257
 79 116 l 257
EndSplineSet
EndChar

StartChar: guillemotleft
Encoding: 171 171 228
Width: 487
VWidth: 0
Flags: HW
PickledData: "(dp1
S'org.pippin.gimp.org.kernagic'
p2
(dp3
S'lstem'
p4
I0
sS'rstem'
p5
I0
ssS'com.typemytype.robofont.layerData'
p6
(dp7
S'b'
(dp8
S'name'
p9
S'guillemotleft'
p10
sS'lib'
p11
(dp12
sS'unicodes'
p13
(tsS'width'
p14
I994
sS'contours'
p15
(tsS'components'
p16
(tsS'anchors'
p17
(tsssS'org.robofab.postScriptHintData'
p18
(dp19
s."
LayerCount: 2
Fore
SplineSet
353 74 m 257
 419 75 l 257
 286 269 l 257
 423 460 l 257
 354 461 l 257
 216 267 l 257
 353 74 l 257
185 74 m 257
 251 75 l 257
 119 269 l 257
 255 460 l 257
 187 461 l 257
 48 267 l 257
 185 74 l 257
EndSplineSet
EndChar

StartChar: guillemotright
Encoding: 187 187 229
Width: 482
VWidth: 0
Flags: HW
PickledData: "(dp1
S'org.pippin.gimp.org.kernagic'
p2
(dp3
S'lstem'
p4
I0
sS'rstem'
p5
I0
ssS'com.typemytype.robofont.layerData'
p6
(dp7
sS'org.robofab.postScriptHintData'
p8
(dp9
s."
LayerCount: 2
Fore
SplineSet
289 74 m 257
 426 267 l 257
 288 461 l 257
 219 460 l 257
 355 268 l 257
 222 75 l 257
 289 74 l 257
120 74 m 257
 258 267 l 257
 120 461 l 257
 51 460 l 257
 188 268 l 257
 53 75 l 257
 120 74 l 257
EndSplineSet
EndChar

StartChar: guilsinglleft
Encoding: 8249 8249 230
Width: 299
VWidth: 0
Flags: HW
PickledData: "(dp1
S'org.robofab.postScriptHintData'
p2
(dp3
s."
LayerCount: 2
Fore
SplineSet
188 71 m 257
 257 71 l 257
 119 271 l 257
 261 471 l 257
 190 471 l 257
 46 270 l 257
 188 71 l 257
EndSplineSet
EndChar

StartChar: guilsinglright
Encoding: 8250 8250 231
Width: 365
VWidth: 0
Flags: HW
PickledData: "(dp1
S'org.pippin.gimp.org.kernagic'
p2
(dp3
S'lstem'
p4
I0
sS'rstem'
p5
I0
ssS'com.typemytype.robofont.layerData'
p6
(dp7
S'b'
(dp8
S'name'
p9
S'guilsinglright'
p10
sS'lib'
p11
(dp12
sS'unicodes'
p13
(tsS'width'
p14
I766
sS'contours'
p15
(tsS'components'
p16
(tsS'anchors'
p17
(tsssS'org.robofab.postScriptHintData'
p18
(dp19
s."
LayerCount: 2
Fore
SplineSet
77 71 m 257
 146 71 l 257
 292 279 l 257
 145 489 l 257
 75 489 l 257
 217 279 l 257
 77 71 l 257
EndSplineSet
EndChar

StartChar: h
Encoding: 104 104 232
Width: 585
VWidth: 0
Flags: HW
PickledData: "(dp1
S'org.pippin.gimp.org.kernagic'
p2
(dp3
S'lstem'
p4
I0
sS'rstem'
p5
I0
ssS'com.fontlab.hintData'
p6
(dp7
S'vhints'
p8
((dp9
S'position'
p10
I193
sS'width'
p11
I122
s(dp12
g10
I910
sg11
I122
stp13
sS'hhints'
p14
((dp15
g10
I982
sg11
I92
stp16
ssS'com.typemytype.robofont.layerData'
p17
(dp18
sS'org.robofab.postScriptHintData'
p19
(dp20
s."
HStem: 479 45
VStem: 94 60 444 60
AnchorPoint: "top" 321 666 basechar 0
LayerCount: 2
Fore
SplineSet
85 0 m 257
 158 0 l 257
 158 296 l 258
 158 385 195 484 323 484 c 256
 405 484 435 430 435 326 c 258
 435 0 l 257
 509 0 l 257
 509 328 l 258
 509 462 448 540 334 540 c 256
 260 540 193 514 155 433 c 257
 158 557 l 257
 158 762 l 257
 85 752 l 257
 85 0 l 257
EndSplineSet
EndChar

StartChar: hungarumlaut
Encoding: 733 733 235
Width: 375
VWidth: 0
Flags: HW
PickledData: "(dp1
S'org.robofab.postScriptHintData'
p2
(dp3
sS'com.typemytype.robofont.layerData'
p4
(dp5
s."
AnchorPoint: "top" 162 519 mark 0
LayerCount: 2
Fore
SplineSet
204 607 m 257
 250 607 l 257
 353 772 l 257
 277 772 l 257
 204 607 l 257
81 607 m 257
 127 607 l 257
 210 772 l 257
 142 772 l 257
 81 607 l 257
EndSplineSet
EndChar

StartChar: hyphen
Encoding: 45 45 236
Width: 411
VWidth: 0
Flags: HW
PickledData: "(dp1
S'org.pippin.gimp.org.kernagic'
p2
(dp3
S'lstem'
p4
I0
sS'rstem'
p5
I0
ssS'com.typemytype.robofont.layerData'
p6
(dp7
sS'org.robofab.postScriptHintData'
p8
(dp9
s."
LayerCount: 2
Fore
SplineSet
82 261 m 257
 323 261 l 257
 323 320 l 257
 82 320 l 257
 82 261 l 257
EndSplineSet
EndChar

StartChar: i
Encoding: 105 105 237
Width: 247
VWidth: 0
Flags: HW
PickledData: "(dp1
S'org.robofab.postScriptHintData'
p2
(dp3
sS'com.typemytype.robofont.layerData'
p4
(dp5
s."
LayerCount: 2
Fore
SplineSet
187 695 m 256
 187 729 167 749 131 749 c 256
 95 749 76 729 76 695 c 256
 76 661 95 640 131 640 c 256
 167 640 187 661 187 695 c 256
92 528 m 257
 92 0 l 257
 165 0 l 257
 165 528 l 257
 92 528 l 257
EndSplineSet
EndChar

StartChar: infinity
Encoding: 8734 8734 246
Width: 812
VWidth: 0
Flags: HW
PickledData: "(dp1
S'org.pippin.gimp.org.kernagic'
p2
(dp3
S'lstem'
p4
I0
sS'rstem'
p5
I0
ssS'com.typemytype.robofont.layerData'
p6
(dp7
S'b'
(dp8
S'name'
p9
S'infinity'
p10
sS'lib'
p11
(dp12
sS'unicodes'
p13
(tsS'width'
p14
I1647
sS'contours'
p15
(tsS'components'
p16
(tsS'anchors'
p17
(tsssS'org.robofab.postScriptHintData'
p18
(dp19
s."
LayerCount: 2
Fore
SplineSet
716 320 m 256
 716 240 679 179 604 179 c 256
 545 179 499 223 437 309 c 257
 483 379 536 435 602 435 c 256
 669 435 716 383 716 320 c 256
375 305 m 257
 326 232 272 179 208 179 c 256
 136 179 88 240 88 307 c 256
 88 377 133 435 205 435 c 256
 274 435 327 383 375 305 c 257
406 355 m 257
 344 439 284 490 206 490 c 256
 111 490 37 415 37 317 c 256
 37 210 102 123 208 123 c 256
 285 123 345 175 406 257 c 257
 473 166 533 123 603 123 c 256
 699 123 771 199 771 309 c 256
 771 415 710 490 604 490 c 256
 524 490 465 438 406 355 c 257
EndSplineSet
EndChar

StartChar: integral
Encoding: 8747 8747 247
Width: 458
VWidth: 0
Flags: HW
PickledData: "(dp1
S'org.pippin.gimp.org.kernagic'
p2
(dp3
S'lstem'
p4
I0
sS'rstem'
p5
I0
ssS'com.typemytype.robofont.layerData'
p6
(dp7
S'b'
(dp8
S'name'
p9
S'integral'
p10
sS'lib'
p11
(dp12
sS'unicodes'
p13
(tsS'width'
p14
I994
sS'contours'
p15
(tsS'components'
p16
(tsS'anchors'
p17
(tsssS'org.robofab.postScriptHintData'
p18
(dp19
s."
LayerCount: 2
Fore
SplineSet
241 562 m 258
 241 -21 l 258
 241 -103 231 -157 164 -157 c 256
 151 -157 135 -155 117 -150 c 257
 117 -194 l 257
 137 -198 155 -201 171 -201 c 256
 259 -201 295 -137 295 -17 c 258
 295 563 l 258
 295 647 307 693 364 693 c 256
 377 693 391 690 409 685 c 257
 409 729 l 257
 388 734 369 736 352 736 c 256
 270 736 241 679 241 562 c 258
EndSplineSet
EndChar

StartChar: j
Encoding: 106 106 250
Width: 275
VWidth: 0
Flags: HW
PickledData: "(dp1
S'org.robofab.postScriptHintData'
p2
(dp3
sS'com.typemytype.robofont.layerData'
p4
(dp5
s."
LayerCount: 2
Fore
SplineSet
211 694 m 256
 211 728 192 748 156 748 c 256
 120 748 100 728 100 694 c 256
 100 660 120 640 156 640 c 256
 192 640 211 660 211 694 c 256
118 528 m 257
 118 14 l 258
 118 -80 116 -101 43 -113 c 257
 15 -118 l 257
 22 -178 l 257
 51 -175 l 258
 150 -165 190 -129 190 -6 c 258
 190 528 l 257
 118 528 l 257
EndSplineSet
EndChar

StartChar: k
Encoding: 107 107 252
Width: 526
VWidth: 0
Flags: HW
PickledData: "(dp1
S'org.pippin.gimp.org.kernagic'
p2
(dp3
S'lstem'
p4
I0
sS'rstem'
p5
I671
ssS'com.typemytype.robofont.layerData'
p6
(dp7
sS'org.robofab.postScriptHintData'
p8
(dp9
s."
AnchorPoint: "bot" 287 0 basechar 0
LayerCount: 2
Fore
SplineSet
85 0 m 257
 158 0 l 257
 158 194 l 257
 222 249 l 257
 434 0 l 257
 514 0 l 257
 514 10 l 257
 272 286 l 257
 500 519 l 257
 500 528 l 257
 417 528 l 257
 155 257 l 257
 158 363 l 257
 158 762 l 257
 85 752 l 257
 85 0 l 257
EndSplineSet
EndChar

StartChar: kgreenlandic
Encoding: 312 312 254
Width: 524
VWidth: 0
Flags: HW
PickledData: "(dp1
S'org.robofab.postScriptHintData'
p2
(dp3
s."
LayerCount: 2
Fore
SplineSet
79 0 m 257
 152 0 l 257
 152 194 l 257
 216 250 l 257
 428 0 l 257
 507 0 l 257
 507 11 l 257
 267 287 l 257
 494 518 l 257
 494 528 l 257
 411 528 l 257
 149 258 l 257
 152 364 l 257
 152 528 l 257
 79 528 l 257
 79 0 l 257
EndSplineSet
EndChar

StartChar: l
Encoding: 108 108 255
Width: 300
VWidth: 0
Flags: HW
PickledData: "(dp1
S'org.pippin.gimp.org.kernagic'
p2
(dp3
S'lstem'
p4
I0
sS'rstem'
p5
I238
ssS'com.fontlab.hintData'
p6
(dp7
S'vhints'
p8
((dp9
S'position'
p10
I193
sS'width'
p11
I122
stp12
sS'hhints'
p13
((dp14
g10
I-11
sg11
I87
stp15
ssS'com.typemytype.robofont.layerData'
p16
(dp17
sS'org.robofab.postScriptHintData'
p18
(dp19
s."
HStem: -5 42
VStem: 94 60
AnchorPoint: "bot" 185 0 basechar 0
AnchorPoint: "top" 168 727 basechar 0
LayerCount: 2
Fore
SplineSet
219 -4 m 256
 225 -4 257 -3 259 -3 c 257
 264 50 l 257
 263 50 237 51 232 51 c 256
 170 54 159 67 159 145 c 258
 159 762 l 257
 86 752 l 257
 86 143 l 258
 86 18 139 -4 219 -4 c 256
EndSplineSet
EndChar

StartChar: less
Encoding: 60 60 260
Width: 552
VWidth: 0
Flags: HW
PickledData: "(dp1
S'org.pippin.gimp.org.kernagic'
p2
(dp3
S'lstem'
p4
I0
sS'rstem'
p5
I0
ssS'com.typemytype.robofont.layerData'
p6
(dp7
S'b'
(dp8
S'name'
p9
S'less'
p10
sS'lib'
p11
(dp12
sS'unicodes'
p13
(tsS'width'
p14
I1107
sS'contours'
p15
(tsS'components'
p16
(tsS'anchors'
p17
(tsssS'org.robofab.postScriptHintData'
p18
(dp19
s."
LayerCount: 2
Fore
SplineSet
497 63 m 257
 498 127 l 257
 123 307 l 257
 498 499 l 257
 498 563 l 257
 42 325 l 257
 42 285 l 257
 497 63 l 257
EndSplineSet
EndChar

StartChar: lessequal
Encoding: 8804 8804 261
Width: 587
VWidth: 0
Flags: HW
PickledData: "(dp1
S'org.robofab.postScriptHintData'
p2
(dp3
sS'com.typemytype.robofont.layerData'
p4
(dp5
s."
LayerCount: 2
Fore
SplineSet
62 3 m 257
 521 3 l 257
 521 60 l 257
 62 61 l 257
 62 3 l 257
505 115 m 257
 505 176 l 257
 155 369 l 257
 504 575 l 257
 504 638 l 257
 75 387 l 257
 75 351 l 257
 505 115 l 257
EndSplineSet
EndChar

StartChar: logicalnot
Encoding: 172 172 262
Width: 606
VWidth: 0
Flags: HW
PickledData: "(dp1
S'org.pippin.gimp.org.kernagic'
p2
(dp3
S'lstem'
p4
I0
sS'rstem'
p5
I0
ssS'com.typemytype.robofont.layerData'
p6
(dp7
sS'org.robofab.postScriptHintData'
p8
(dp9
s."
LayerCount: 2
Fore
SplineSet
52 390 m 257
 52 333 l 257
 464 333 l 257
 464 125 l 257
 518 125 l 257
 518 390 l 257
 52 390 l 257
EndSplineSet
EndChar

StartChar: lozenge
Encoding: 9674 9674 263
Width: 570
VWidth: 0
Flags: HW
PickledData: "(dp1
S'org.pippin.gimp.org.kernagic'
p2
(dp3
S'lstem'
p4
I0
sS'rstem'
p5
I0
ssS'com.typemytype.robofont.layerData'
p6
(dp7
S'b'
(dp8
S'name'
p9
S'lozenge'
p10
sS'lib'
p11
(dp12
sS'unicodes'
p13
(tsS'width'
p14
I1164
sS'contours'
p15
(tsS'components'
p16
(tsS'anchors'
p17
(tsssS'org.robofab.postScriptHintData'
p18
(dp19
s."
LayerCount: 2
Fore
SplineSet
444 376 m 257
 283 55 l 257
 124 377 l 257
 287 695 l 257
 444 376 l 257
262 776 m 257
 58 376 l 257
 259 -22 l 257
 306 -22 l 257
 510 377 l 257
 310 776 l 257
 262 776 l 257
EndSplineSet
EndChar

StartChar: m
Encoding: 109 109 265
Width: 886
VWidth: 0
Flags: HW
PickledData: "(dp1
S'org.pippin.gimp.org.kernagic'
p2
(dp3
S'lstem'
p4
I0
sS'rstem'
p5
I0
ssS'com.fontlab.hintData'
p6
(dp7
S'vhints'
p8
((dp9
S'position'
p10
I193
sS'width'
p11
I122
s(dp12
g10
I193
sg11
I98
s(dp13
g10
I845
sg11
I122
s(dp14
g10
I1483
sg11
I122
stp15
sS'hhints'
p16
((dp17
g10
I982
sg11
I92
stp18
ssS'com.typemytype.robofont.layerData'
p19
(dp20
sS'org.robofab.postScriptHintData'
p21
(dp22
s."
HStem: 479 45
VStem: 94 60 94 48 413 60 724 60
AnchorPoint: "top" 461 528 basechar 0
LayerCount: 2
Fore
SplineSet
483 296 m 258
 483 411 554 484 634 484 c 256
 722 484 736 402 736 322 c 258
 736 0 l 257
 810 0 l 257
 810 337 l 258
 810 471 754 540 645 540 c 256
 569 540 502 503 468 414 c 257
 449 490 399 540 316 540 c 256
 247 540 187 507 153 426 c 257
 145 528 l 257
 84 528 l 257
 84 0 l 257
 157 0 l 257
 157 315 l 257
 167 406 214 484 306 484 c 256
 384 484 410 427 410 308 c 258
 410 0 l 257
 483 0 l 257
 483 296 l 258
EndSplineSet
EndChar

StartChar: macron
Encoding: 175 175 266
Width: 571
VWidth: 0
Flags: HW
PickledData: "(dp1
S'org.robofab.postScriptHintData'
p2
(dp3
sS'com.typemytype.robofont.layerData'
p4
(dp5
s."
AnchorPoint: "top" 286 519 mark 0
LayerCount: 2
Fore
SplineSet
143 656 m 257
 412 656 l 257
 412 698 l 257
 143 698 l 257
 143 656 l 257
EndSplineSet
EndChar

StartChar: minus
Encoding: 8722 8722 268
Width: 560
VWidth: 0
Flags: HW
PickledData: "(dp1
S'org.pippin.gimp.org.kernagic'
p2
(dp3
S'lstem'
p4
I0
sS'rstem'
p5
I0
ssS'com.typemytype.robofont.layerData'
p6
(dp7
sS'org.robofab.postScriptHintData'
p8
(dp9
s."
LayerCount: 2
Fore
SplineSet
47 327 m 257
 47 264 l 257
 512 264 l 257
 512 327 l 257
 47 327 l 257
EndSplineSet
EndChar

StartChar: multiply
Encoding: 215 215 270
Width: 450
VWidth: 0
Flags: HW
PickledData: "(dp1
S'org.pippin.gimp.org.kernagic'
p2
(dp3
S'lstem'
p4
I0
sS'rstem'
p5
I0
ssS'com.typemytype.robofont.layerData'
p6
(dp7
sS'org.robofab.postScriptHintData'
p8
(dp9
s."
LayerCount: 2
Fore
SplineSet
48 466 m 257
 185 317 l 257
 42 163 l 257
 82 123 l 257
 224 275 l 257
 364 123 l 257
 402 165 l 257
 402 165 270 310 263 317 c 257
 400 464 l 257
 358 505 l 257
 224 359 l 257
 88 508 l 257
 48 466 l 257
EndSplineSet
EndChar

StartChar: n
Encoding: 110 110 271
Width: 581
VWidth: 0
Flags: HW
PickledData: "(dp1
S'org.pippin.gimp.org.kernagic'
p2
(dp3
S'lstem'
p4
I0
sS'rstem'
p5
I0
ssS'com.fontlab.hintData'
p6
(dp7
S'vhints'
p8
((dp9
S'position'
p10
I193
sS'width'
p11
I122
s(dp12
g10
I903
sg11
I122
stp13
sS'hhints'
p14
((dp15
g10
I0
sg11
I22
s(dp16
g10
I982
sg11
I92
s(dp17
g10
I1034
sg11
I21
stp18
ssS'com.typemytype.robofont.layerData'
p19
(dp20
sS'org.robofab.postScriptHintData'
p21
(dp22
s."
HStem: 0 11 479 45 505 10
VStem: 94 60 441 60
AnchorPoint: "bot" 292 0 basechar 0
AnchorPoint: "top" 334 528 basechar 0
LayerCount: 2
Fore
SplineSet
84 0 m 257
 157 0 l 257
 157 304 l 258
 157 398 200 484 321 484 c 256
 407 484 432 421 432 331 c 258
 432 0 l 257
 505 0 l 257
 505 318 l 258
 505 463 452 540 333 540 c 256
 247 540 185 507 153 428 c 257
 145 528 l 257
 84 528 l 257
 84 0 l 257
EndSplineSet
EndChar

StartChar: nine
Encoding: 57 57 276
Width: 604
VWidth: 0
Flags: HW
PickledData: "(dp1
S'org.pippin.gimp.org.kernagic'
p2
(dp3
S'lstem'
p4
I0
sS'rstem'
p5
I0
ssS'com.typemytype.robofont.layerData'
p6
(dp7
sS'org.robofab.postScriptHintData'
p8
(dp9
s."
LayerCount: 2
Fore
SplineSet
476 500 m 256
 476 375 374 340 311 340 c 256
 211 340 158 410 158 499 c 256
 158 585 216 662 318 662 c 256
 421 662 476 585 476 500 c 256
174 0 m 257
 253 0 l 257
 427 223 l 258
 498 315 545 387 545 495 c 256
 545 611 465 721 318 721 c 256
 178 721 87 622 87 498 c 256
 87 369 180 281 294 281 c 256
 336 281 381 293 417 318 c 257
 338 213 255 112 174 9 c 257
 174 0 l 257
EndSplineSet
EndChar

StartChar: notequal
Encoding: 8800 8800 277
Width: 535
VWidth: 0
Flags: HW
PickledData: "(dp1
S'org.pippin.gimp.org.kernagic'
p2
(dp3
S'lstem'
p4
I0
sS'rstem'
p5
I0
ssS'com.typemytype.robofont.layerData'
p6
(dp7
S'b'
(dp8
S'name'
p9
S'notequal'
p10
sS'lib'
p11
(dp12
sS'unicodes'
p13
(tsS'width'
p14
I1079
sS'contours'
p15
(tsS'components'
p16
(tsS'anchors'
p17
(tsssS'org.robofab.postScriptHintData'
p18
(dp19
s."
LayerCount: 2
Fore
SplineSet
147 24 m 257
 220 175 l 257
 486 175 l 257
 484 228 l 257
 243 228 l 257
 327 389 l 257
 486 389 l 257
 482 442 l 257
 350 442 l 257
 411 583 l 257
 367 588 l 257
 296 442 l 257
 38 442 l 257
 41 389 l 257
 273 389 l 257
 191 228 l 257
 38 228 l 257
 41 175 l 257
 165 175 l 257
 104 31 l 257
 147 24 l 257
EndSplineSet
EndChar

StartChar: numbersign
Encoding: 35 35 279
Width: 569
VWidth: 0
Flags: HW
PickledData: "(dp1
S'org.pippin.gimp.org.kernagic'
p2
(dp3
S'lstem'
p4
I0
sS'rstem'
p5
I0
ssS'com.typemytype.robofont.layerData'
p6
(dp7
sS'org.robofab.postScriptHintData'
p8
(dp9
s."
LayerCount: 2
Fore
SplineSet
191 258 m 257
 237 481 l 257
 384 481 l 257
 339 258 l 257
 191 258 l 257
90 -8 m 257
 137 -8 l 257
 183 215 l 257
 330 215 l 257
 285 -8 l 257
 331 -8 l 257
 376 215 l 257
 485 215 l 257
 492 258 l 257
 385 258 l 257
 431 481 l 257
 531 481 l 257
 538 523 l 257
 439 523 l 257
 487 751 l 257
 442 751 l 257
 393 523 l 257
 246 523 l 257
 294 751 l 257
 247 751 l 257
 198 523 l 257
 102 523 l 257
 96 481 l 257
 189 481 l 257
 144 258 l 257
 49 258 l 257
 43 215 l 257
 135 215 l 257
 90 -8 l 257
EndSplineSet
EndChar

StartChar: o
Encoding: 111 111 280
Width: 585
VWidth: 0
Flags: HW
PickledData: "(dp1
S'org.pippin.gimp.org.kernagic'
p2
(dp3
S'lstem'
p4
I0
sS'rstem'
p5
I0
ssS'org.robofab.postScriptHintData'
p6
(dp7
sS'com.typemytype.robofont.guides'
p8
((dp9
S'y'
I1093
sS'x'
I582
sS'magnetic'
p10
I5
sS'angle'
p11
F90
sS'isGlobal'
p12
I00
stp13
sS'com.typemytype.robofont.layerData'
p14
(dp15
sS'com.fontlab.hintData'
p16
(dp17
S'vhints'
p18
((dp19
S'position'
p20
I128
sS'width'
p21
I120
s(dp22
g20
I982
sg21
I120
stp23
sS'hhints'
p24
((dp25
g20
I-19
sg21
I92
s(dp26
g20
I982
sg21
I92
stp27
ss."
HStem: -9 45 479 45
VStem: 62 59 479 59
AnchorPoint: "top" 293 528 basechar 0
LayerCount: 2
Fore
SplineSet
293 -10 m 256
 443 -10 529 102 529 265 c 256
 529 432 444 540 293 540 c 256
 142 540 57 432 57 265 c 256
 57 102 143 -10 293 -10 c 256
293 46 m 256
 184 46 132 139 132 264 c 256
 132 392 184 484 293 484 c 256
 402 484 454 392 454 264 c 256
 454 140 402 46 293 46 c 256
EndSplineSet
Substitution2: "Single Substitution lookup 4 subtable" ordmasculine
EndChar

StartChar: oe
Encoding: 339 339 285
Width: 942
VWidth: 0
Flags: HW
PickledData: "(dp1
S'org.pippin.gimp.org.kernagic'
p2
(dp3
S'lstem'
p4
I0
sS'rstem'
p5
I0
ssS'com.typemytype.robofont.layerData'
p6
(dp7
S'b'
(dp8
S'name'
p9
S'oe'
p10
sS'lib'
p11
(dp12
sS'unicodes'
p13
(tsS'width'
p14
F1915.3599999999999
sS'contours'
p15
(tsS'components'
p16
(tsS'anchors'
p17
(tsssS'org.robofab.postScriptHintData'
p18
(dp19
s."
LayerCount: 2
Fore
SplineSet
529 302 m 257
 539 409 603 480 696 480 c 256
 787 480 829 414 831 302 c 257
 529 302 l 257
292 46 m 256
 180 46 131 141 131 262 c 256
 131 386 180 480 292 480 c 256
 404 480 453 387 453 262 c 256
 453 142 405 46 292 46 c 256
889 253 m 257
 889 254 893 289 893 302 c 256
 893 447 816 537 692 537 c 256
 610 537 526 486 493 400 c 257
 466 484 389 537 292 537 c 256
 139 537 56 428 56 263 c 256
 56 102 140 -10 292 -10 c 256
 385 -10 467 47 492 130 c 257
 522 44 611 -10 700 -10 c 256
 776 -10 833 12 878 41 c 257
 860 91 l 257
 854 91 l 257
 806 65 769 47 708 47 c 256
 611 47 528 105 528 253 c 257
 889 253 l 257
EndSplineSet
EndChar

StartChar: ogonek
Encoding: 731 731 286
Width: 359
VWidth: 0
Flags: HW
PickledData: "(dp1
S'org.pippin.gimp.org.kernagic'
p2
(dp3
S'lstem'
p4
I0
sS'rstem'
p5
I0
ssS'com.typemytype.robofont.layerData'
p6
(dp7
sS'org.robofab.postScriptHintData'
p8
(dp9
s."
LayerCount: 2
Fore
SplineSet
203 -202 m 256
 226 -202 254 -195 270 -188 c 257
 269 -143 l 257
 259 -147 237 -154 218 -154 c 256
 195 -154 176 -142 176 -113 c 256
 176 -74 218 -21 250 1 c 257
 213 1 l 257
 160 -22 114 -78 114 -131 c 256
 114 -175 147 -202 203 -202 c 256
EndSplineSet
EndChar

StartChar: one
Encoding: 49 49 290
Width: 604
VWidth: 0
Flags: HW
PickledData: "(dp1
S'org.pippin.gimp.org.kernagic'
p2
(dp3
S'lstem'
p4
I0
sS'rstem'
p5
I0
ssS'com.typemytype.robofont.layerData'
p6
(dp7
sS'org.robofab.postScriptHintData'
p8
(dp9
s."
LayerCount: 2
Fore
SplineSet
101 0 m 257
 534 0 l 257
 534 55 l 257
 364 55 l 257
 364 711 l 257
 295 711 l 257
 258 685 148 647 110 640 c 257
 110 580 l 257
 144 584 237 613 291 643 c 257
 291 55 l 257
 101 55 l 257
 101 0 l 257
EndSplineSet
EndChar

StartChar: onehalf
Encoding: 189 189 291
Width: 848
VWidth: 0
Flags: HW
PickledData: "(dp1
S'org.pippin.gimp.org.kernagic'
p2
(dp3
S'lstem'
p4
I0
sS'rstem'
p5
I0
ssS'com.typemytype.robofont.layerData'
p6
(dp7
sS'org.robofab.postScriptHintData'
p8
(dp9
s."
LayerCount: 2
Fore
SplineSet
183 0 m 257
 242 0 l 257
 681 726 l 257
 623 726 l 257
 183 0 l 257
64 298 m 257
 268 298 l 257
 268 348 l 257
 199 348 l 257
 199 724 l 257
 150 724 l 257
 129 704 78 681 60 674 c 257
 60 624 l 257
 77 631 120 649 138 661 c 257
 138 348 l 257
 64 348 l 257
 64 298 l 257
547 0 m 257
 795 0 l 257
 797 51 l 257
 619 51 l 257
 628 60 704 133 710 139 c 256
 771 197 801 233 801 298 c 256
 801 378 740 422 666 422 c 256
 608 422 554 392 528 344 c 257
 562 310 l 257
 590 351 625 368 665 368 c 256
 708 368 742 343 742 295 c 256
 742 259 725 230 670 173 c 256
 663 167 559 61 547 49 c 257
 547 0 l 257
EndSplineSet
Ligature2: "fracDiagonalFractionslookup11 subtable" one slash two
EndChar

StartChar: onequarter
Encoding: 188 188 292
Width: 843
VWidth: 0
Flags: HW
PickledData: "(dp1
S'org.pippin.gimp.org.kernagic'
p2
(dp3
S'lstem'
p4
I0
sS'rstem'
p5
I0
ssS'com.typemytype.robofont.layerData'
p6
(dp7
sS'org.robofab.postScriptHintData'
p8
(dp9
s."
LayerCount: 2
Fore
SplineSet
545 143 m 257
 680 342 l 257
 680 143 l 257
 545 143 l 257
188 0 m 257
 247 0 l 257
 687 726 l 257
 628 726 l 257
 188 0 l 257
680 0 m 257
 736 0 l 257
 736 96 l 257
 796 96 l 257
 793 143 l 257
 737 143 l 257
 737 416 l 257
 675 416 l 257
 483 137 l 257
 483 96 l 257
 680 96 l 257
 680 0 l 257
64 298 m 257
 268 298 l 257
 268 348 l 257
 199 348 l 257
 199 724 l 257
 150 724 l 257
 129 704 78 681 60 674 c 257
 60 624 l 257
 77 631 120 649 138 661 c 257
 138 348 l 257
 64 348 l 257
 64 298 l 257
EndSplineSet
Ligature2: "fracDiagonalFractionslookup11 subtable" one slash four
EndChar

StartChar: ordmasculine
Encoding: 186 186 294
Width: 459
VWidth: 0
Flags: HW
PickledData: "(dp1
S'org.pippin.gimp.org.kernagic'
p2
(dp3
S'lstem'
p4
I0
sS'rstem'
p5
I0
ssS'com.typemytype.robofont.layerData'
p6
(dp7
S'b'
(dp8
S'name'
p9
S'ordmasculine'
p10
sS'lib'
p11
(dp12
sS'unicodes'
p13
(tsS'width'
p14
I965
sS'contours'
p15
(tsS'components'
p16
(tsS'anchors'
p17
(tsssS'org.robofab.postScriptHintData'
p18
(dp19
s."
LayerCount: 2
Fore
SplineSet
333 540 m 256
 333 458 300 406 229 406 c 256
 162 406 128 459 128 542 c 256
 128 625 163 680 229 680 c 256
 298 680 333 624 333 540 c 256
65 541 m 256
 65 436 124 357 229 357 c 256
 329 357 393 437 393 541 c 256
 393 650 337 728 229 728 c 256
 124 728 65 649 65 541 c 256
EndSplineSet
EndChar

StartChar: oslash
Encoding: 248 248 295
Width: 585
VWidth: 0
Flags: HW
PickledData: "(dp1
S'org.pippin.gimp.org.kernagic'
p2
(dp3
S'lstem'
p4
I0
sS'rstem'
p5
I0
ssS'com.typemytype.robofont.layerData'
p6
(dp7
sS'org.robofab.postScriptHintData'
p8
(dp9
s."
LayerCount: 2
Fore
SplineSet
96 -60 m 257
 127 -78 l 257
 482 585 l 257
 448 603 l 257
 96 -60 l 257
EndSplineSet
Refer: 280 111 N 1 0 0 1 0 0 2
EndChar

StartChar: p
Encoding: 112 112 298
Width: 591
VWidth: 0
Flags: HW
PickledData: "(dp1
S'org.pippin.gimp.org.kernagic'
p2
(dp3
S'lstem'
p4
I0
sS'rstem'
p5
I0
ssS'com.fontlab.hintData'
p6
(dp7
S'vhints'
p8
((dp9
S'position'
p10
I193
sS'width'
p11
I122
s(dp12
g10
I193
sg11
I97
s(dp13
g10
I1009
sg11
I122
stp14
sS'hhints'
p15
((dp16
g10
I-19
sg11
I92
s(dp17
g10
I982
sg11
I92
stp18
ssS'com.typemytype.robofont.layerData'
p19
(dp20
sS'org.robofab.postScriptHintData'
p21
(dp22
s."
HStem: -9 45 479 45
VStem: 94 60 94 47 493 60
AnchorPoint: "top" 324 528 basechar 0
LayerCount: 2
Fore
SplineSet
306 46 m 256
 238 46 185 75 154 129 c 257
 154 272 l 258
 154 395 199 484 314 484 c 256
 421 484 459 394 459 264 c 256
 459 131 411 46 306 46 c 256
84 -226 m 257
 157 -225 l 257
 157 -37 l 257
 154 51 l 257
 188 12 242 -10 310 -10 c 256
 448 -10 535 100 535 263 c 256
 535 432 464 540 322 540 c 256
 239 540 179 498 152 416 c 257
 144 528 l 257
 84 528 l 257
 84 -226 l 257
EndSplineSet
EndChar

StartChar: paragraph
Encoding: 182 182 299
Width: 552
VWidth: 0
Flags: HW
PickledData: "(dp1
S'org.pippin.gimp.org.kernagic'
p2
(dp3
S'lstem'
p4
I0
sS'rstem'
p5
I0
ssS'com.typemytype.robofont.layerData'
p6
(dp7
sS'org.robofab.postScriptHintData'
p8
(dp9
s."
LayerCount: 2
Fore
SplineSet
312 657 m 257
 381 657 l 257
 381 -97 l 257
 436 -97 l 257
 436 711 l 257
 264 711 l 258
 105 711 67 619 67 549 c 256
 67 465 114 382 258 382 c 257
 258 -97 l 257
 312 -97 l 257
 312 657 l 257
EndSplineSet
EndChar

StartChar: parenright
Encoding: 41 41 301
Width: 366
VWidth: 0
Flags: HW
PickledData: "(dp1
S'org.pippin.gimp.org.kernagic'
p2
(dp3
S'lstem'
p4
I0
sS'rstem'
p5
I0
ssS'com.typemytype.robofont.layerData'
p6
(dp7
S'b'
(dp8
S'name'
p9
S'parenright'
p10
sS'lib'
p11
(dp12
sS'unicodes'
p13
(tsS'width'
p14
I766
sS'contours'
p15
(tsS'components'
p16
(tsS'anchors'
p17
(tsssS'org.robofab.postScriptHintData'
p18
(dp19
s."
LayerCount: 2
Fore
SplineSet
265 334 m 256
 265 491 223 642 140 775 c 257
 79 775 l 257
 79 761 l 257
 168 613 197 475 197 334 c 256
 197 193 168 55 79 -93 c 257
 79 -107 l 257
 140 -107 l 257
 223 26 265 178 265 334 c 256
EndSplineSet
EndChar

StartChar: partialdiff
Encoding: 8706 8706 302
Width: 569
VWidth: 0
Flags: HW
PickledData: "(dp1
S'org.robofab.postScriptHintData'
p2
(dp3
s."
LayerCount: 2
Fore
SplineSet
233 36 m 256
 187 36 165 74 165 127 c 256
 165 236 260 405 430 408 c 257
 423 256 360 36 233 36 c 256
228 -9 m 256
 393 -9 504 185 504 442 c 256
 504 643 395 762 256 762 c 256
 211 762 163 750 115 724 c 257
 132 682 l 257
 170 699 206 707 239 707 c 256
 352 707 432 613 432 465 c 256
 432 459 432 454 432 448 c 257
 208 448 82 271 82 137 c 256
 82 56 128 -9 228 -9 c 256
EndSplineSet
EndChar

StartChar: percent
Encoding: 37 37 303
Width: 789
VWidth: 0
Flags: HW
PickledData: "(dp1
S'org.pippin.gimp.org.kernagic'
p2
(dp3
S'lstem'
p4
I0
sS'rstem'
p5
I0
ssS'com.typemytype.robofont.layerData'
p6
(dp7
S'b'
(dp8
S'name'
p9
S'percent'
p10
sS'lib'
p11
(dp12
sS'unicodes'
p13
(tsS'width'
p14
I1563
sS'contours'
p15
(tsS'components'
p16
(tsS'anchors'
p17
(tsssS'org.robofab.postScriptHintData'
p18
(dp19
s."
LayerCount: 2
Fore
SplineSet
565 -1 m 256
 674 -1 715 80 715 185 c 256
 715 292 675 370 565 370 c 256
 457 370 416 290 416 185 c 256
 416 80 455 -1 565 -1 c 256
566 42 m 256
 488 42 470 103 470 185 c 256
 470 265 488 326 566 326 c 256
 643 326 662 268 662 185 c 256
 662 105 644 42 566 42 c 256
142 0 m 257
 203 0 l 257
 603 711 l 257
 547 711 l 257
 142 0 l 257
180 348 m 256
 289 348 329 430 329 534 c 256
 329 641 290 720 180 720 c 256
 72 720 33 639 33 534 c 256
 33 430 70 348 180 348 c 256
180 392 m 256
 102 392 84 452 84 535 c 256
 84 615 102 676 180 676 c 256
 257 676 276 618 276 535 c 256
 276 455 258 392 180 392 c 256
EndSplineSet
EndChar

StartChar: period
Encoding: 46 46 304
Width: 287
VWidth: 0
Flags: HW
PickledData: "(dp1
S'org.pippin.gimp.org.kernagic'
p2
(dp3
S'lstem'
p4
I0
sS'rstem'
p5
I0
ssS'com.typemytype.robofont.layerData'
p6
(dp7
S'b'
(dp8
S'name'
p9
S'period'
p10
sS'lib'
p11
(dp12
sS'unicodes'
p13
(tsS'width'
p14
I624
sS'contours'
p15
(tsS'components'
p16
(tsS'anchors'
p17
(tsssS'org.robofab.postScriptHintData'
p18
(dp19
s."
LayerCount: 2
Fore
SplineSet
146 -6 m 256
 180 -6 192 15 192 48 c 256
 192 80 180 100 146 100 c 256
 111 100 99 80 99 48 c 256
 99 15 111 -6 146 -6 c 256
EndSplineSet
EndChar

StartChar: periodcentered
Encoding: 183 183 305
Width: 293
VWidth: 0
Flags: HW
PickledData: "(dp1
S'org.pippin.gimp.org.kernagic'
p2
(dp3
S'lstem'
p4
I0
sS'rstem'
p5
I0
ssS'com.typemytype.robofont.layerData'
p6
(dp7
S'b'
(dp8
S'name'
p9
S'periodcentered'
p10
sS'lib'
p11
(dp12
sS'unicodes'
p13
(tsS'width'
p14
I653
sS'contours'
p15
(tsS'components'
p16
(tsS'anchors'
p17
(tsssS'org.robofab.postScriptHintData'
p18
(dp19
s."
LayerCount: 2
Fore
SplineSet
144 254 m 256
 175 254 194 276 194 305 c 256
 194 333 175 354 144 354 c 256
 113 354 93 333 93 305 c 256
 93 277 113 254 144 254 c 256
EndSplineSet
EndChar

StartChar: perthousand
Encoding: 8240 8240 306
Width: 1140
VWidth: 0
Flags: HW
PickledData: "(dp1
S'org.pippin.gimp.org.kernagic'
p2
(dp3
S'lstem'
p4
I0
sS'rstem'
p5
I0
ssS'com.typemytype.robofont.layerData'
p6
(dp7
S'b'
(dp8
S'name'
p9
S'perthousand'
p10
sS'lib'
p11
(dp12
sS'unicodes'
p13
(tsS'width'
p14
I2251
sS'contours'
p15
(tsS'components'
p16
(tsS'anchors'
p17
(tsssS'org.robofab.postScriptHintData'
p18
(dp19
s."
LayerCount: 2
Fore
SplineSet
917 -1 m 256
 1026 -1 1066 80 1066 185 c 256
 1066 292 1028 370 917 370 c 256
 809 370 768 290 768 185 c 256
 768 80 807 -1 917 -1 c 256
917 42 m 256
 839 42 821 103 821 185 c 256
 821 265 839 326 917 326 c 256
 995 326 1013 268 1013 185 c 256
 1013 105 995 42 917 42 c 256
EndSplineSet
Refer: 303 37 N 1 0 0 1 4 0 2
EndChar

StartChar: pi
Encoding: 960 960 307
Width: 687
VWidth: 0
Flags: HW
PickledData: "(dp1
S'org.robofab.postScriptHintData'
p2
(dp3
sS'com.typemytype.robofont.layerData'
p4
(dp5
s."
LayerCount: 2
Fore
SplineSet
547 -6 m 256
 583 -6 615 5 633 22 c 257
 633 78 l 257
 619 73 592 62 571 62 c 256
 528 62 507 110 507 214 c 256
 507 274 514 355 528 455 c 257
 646 455 l 257
 646 528 l 257
 209 528 l 258
 92 528 59 488 59 380 c 257
 102 380 l 257
 108 427 128 455 170 455 c 258
 232 455 l 257
 197 189 l 258
 183 81 120 51 60 51 c 257
 60 2 l 257
 225 2 258 54 264 163 c 257
 282 455 l 257
 473 455 l 257
 456 331 436 221 436 141 c 256
 436 49 462 -6 547 -6 c 256
EndSplineSet
EndChar

StartChar: plus
Encoding: 43 43 308
Width: 556
VWidth: 0
Flags: HW
PickledData: "(dp1
S'org.pippin.gimp.org.kernagic'
p2
(dp3
S'lstem'
p4
I0
sS'rstem'
p5
I0
ssS'com.typemytype.robofont.layerData'
p6
(dp7
S'b'
(dp8
S'name'
p9
S'plus'
p10
sS'lib'
p11
(dp12
sS'unicodes'
p13
(tsS'width'
p14
I1136
sS'contours'
p15
(tsS'components'
p16
(tsS'anchors'
p17
(tsssS'org.robofab.postScriptHintData'
p18
(dp19
s."
LayerCount: 2
Fore
SplineSet
239 554 m 257
 239 368 l 257
 62 368 l 257
 62 298 l 257
 239 298 l 257
 239 108 l 257
 312 108 l 257
 312 298 l 257
 487 298 l 257
 487 368 l 257
 312 368 l 257
 312 554 l 257
 239 554 l 257
EndSplineSet
EndChar

StartChar: plusminus
Encoding: 177 177 309
Width: 558
VWidth: 0
Flags: HW
PickledData: "(dp1
S'org.pippin.gimp.org.kernagic'
p2
(dp3
S'lstem'
p4
I0
sS'rstem'
p5
I0
ssS'com.typemytype.robofont.layerData'
p6
(dp7
sS'org.robofab.postScriptHintData'
p8
(dp9
s."
LayerCount: 2
Fore
SplineSet
52 52 m 257
 52 0 l 257
 507 0 l 257
 507 52 l 257
 52 52 l 257
247 538 m 257
 247 347 l 257
 64 347 l 257
 64 296 l 257
 247 296 l 257
 247 100 l 257
 303 100 l 257
 303 296 l 257
 482 296 l 257
 482 347 l 257
 302 347 l 257
 302 538 l 257
 247 538 l 257
EndSplineSet
EndChar

StartChar: product
Encoding: 8719 8719 310
Width: 738
VWidth: 0
Flags: HW
PickledData: "(dp1
S'org.pippin.gimp.org.kernagic'
p2
(dp3
S'lstem'
p4
I0
sS'rstem'
p5
I0
ssS'com.typemytype.robofont.layerData'
p6
(dp7
S'b'
(dp8
S'name'
p9
S'product'
p10
sS'lib'
p11
(dp12
sS'unicodes'
p13
(tsS'width'
p14
I1533
sS'contours'
p15
(tsS'components'
p16
(tsS'anchors'
p17
(tsssS'org.robofab.postScriptHintData'
p18
(dp19
s."
LayerCount: 2
Fore
SplineSet
99 727 m 257
 99 0 l 257
 175 0 l 257
 175 659 l 257
 571 659 l 257
 571 0 l 257
 646 0 l 257
 646 727 l 257
 99 727 l 257
EndSplineSet
EndChar

StartChar: q
Encoding: 113 113 311
Width: 589
VWidth: 0
Flags: HW
PickledData: "(dp1
S'org.pippin.gimp.org.kernagic'
p2
(dp3
S'lstem'
p4
I0
sS'rstem'
p5
I0
ssS'com.typemytype.robofont.layerData'
p6
(dp7
sS'org.robofab.postScriptHintData'
p8
(dp9
s."
LayerCount: 2
Fore
SplineSet
289 46 m 256
 182 46 131 130 131 266 c 256
 131 399 184 484 289 484 c 256
 351 484 402 458 436 404 c 257
 436 116 l 257
 408 71 352 46 289 46 c 256
286 -10 m 256
 338 -10 394 6 434 49 c 257
 433 -21 l 257
 433 -226 l 257
 506 -226 l 257
 506 528 l 257
 445 528 l 257
 441 466 l 257
 411 508 361 540 288 540 c 256
 142 540 56 430 56 266 c 256
 56 102 138 -10 286 -10 c 256
EndSplineSet
EndChar

StartChar: question
Encoding: 63 63 312
Width: 442
VWidth: 0
Flags: HW
PickledData: "(dp1
S'org.pippin.gimp.org.kernagic'
p2
(dp3
S'lstem'
p4
I0
sS'rstem'
p5
I0
ssS'com.typemytype.robofont.layerData'
p6
(dp7
sS'org.robofab.postScriptHintData'
p8
(dp9
s."
LayerCount: 2
Fore
SplineSet
181 -7 m 256
 219 -7 234 19 234 46 c 256
 234 72 219 99 181 99 c 256
 143 99 127 72 127 46 c 256
 127 20 143 -7 181 -7 c 256
163 204 m 257
 199 204 l 257
 248 384 363 417 363 562 c 256
 363 676 288 725 200 725 c 256
 140 725 92 705 57 679 c 257
 70 622 l 257
 90 636 139 664 191 664 c 256
 254 664 292 631 292 559 c 256
 292 447 166 347 163 204 c 257
EndSplineSet
EndChar

StartChar: quotedbl
Encoding: 34 34 314
Width: 322
VWidth: 0
Flags: HW
PickledData: "(dp1
S'org.robofab.postScriptHintData'
p2
(dp3
sS'com.typemytype.robofont.layerData'
p4
(dp5
s."
LayerCount: 2
Fore
SplineSet
214 498 m 257
 250 498 l 257
 267 743 l 257
 188 743 l 257
 214 498 l 257
81 498 m 257
 116 498 l 257
 133 743 l 257
 55 743 l 257
 81 498 l 257
EndSplineSet
EndChar

StartChar: quotedblbase
Encoding: 8222 8222 315
Width: 348
VWidth: 0
Flags: HW
PickledData: "(dp1
S'org.robofab.postScriptHintData'
p2
(dp3
s."
LayerCount: 2
Fore
SplineSet
192 -145 m 257
 237 -145 l 257
 290 81 l 257
 217 81 l 257
 192 -145 l 257
54 -145 m 257
 101 -145 l 257
 150 81 l 257
 81 81 l 257
 54 -145 l 257
EndSplineSet
EndChar

StartChar: quotedblleft
Encoding: 8220 8220 316
Width: 433
VWidth: 0
Flags: HW
PickledData: "(dp1
S'org.robofab.postScriptHintData'
p2
(dp3
sS'com.typemytype.robofont.layerData'
p4
(dp5
s."
LayerCount: 2
Fore
SplineSet
246 496 m 257
 327 496 l 257
 351 727 l 257
 298 727 l 257
 246 496 l 257
83 496 m 257
 164 496 l 257
 188 727 l 257
 135 727 l 257
 83 496 l 257
EndSplineSet
EndChar

StartChar: quotedblright
Encoding: 8221 8221 317
Width: 433
VWidth: 0
Flags: HW
PickledData: "(dp1
S'org.robofab.postScriptHintData'
p2
(dp3
sS'com.typemytype.robofont.layerData'
p4
(dp5
s."
LayerCount: 2
Fore
SplineSet
83 496 m 257
 136 496 l 257
 188 727 l 257
 106 727 l 257
 83 496 l 257
246 496 m 257
 299 496 l 257
 351 727 l 257
 270 727 l 257
 246 496 l 257
EndSplineSet
EndChar

StartChar: quoteleft
Encoding: 8216 8216 318
Width: 255
VWidth: 0
Flags: HW
PickledData: "(dp1
S'org.robofab.postScriptHintData'
p2
(dp3
sS'com.typemytype.robofont.layerData'
p4
(dp5
s."
LayerCount: 2
Fore
SplineSet
188 727 m 257
 135 727 l 257
 83 496 l 257
 164 496 l 257
 188 727 l 257
EndSplineSet
EndChar

StartChar: quoteright
Encoding: 8217 8217 319
Width: 255
VWidth: 0
Flags: HW
PickledData: "(dp1
S'org.robofab.postScriptHintData'
p2
(dp3
sS'com.typemytype.robofont.layerData'
p4
(dp5
s."
LayerCount: 2
Fore
SplineSet
83 496 m 257
 136 496 l 257
 188 727 l 257
 106 727 l 257
 83 496 l 257
EndSplineSet
EndChar

StartChar: quotesinglbase
Encoding: 8218 8218 320
Width: 215
VWidth: 0
Flags: HW
PickledData: "(dp1
S'org.robofab.postScriptHintData'
p2
(dp3
s."
LayerCount: 2
Fore
SplineSet
47 -145 m 257
 96 -145 l 257
 149 81 l 257
 77 81 l 257
 47 -145 l 257
EndSplineSet
EndChar

StartChar: quotesingle
Encoding: 39 39 321
Width: 174
VWidth: 0
Flags: HW
PickledData: "(dp1
S'org.robofab.postScriptHintData'
p2
(dp3
s."
LayerCount: 2
Fore
SplineSet
63 474 m 257
 107 474 l 257
 119 728 l 257
 45 728 l 257
 63 474 l 257
EndSplineSet
EndChar

StartChar: r
Encoding: 114 114 322
Width: 375
VWidth: 0
Flags: HW
PickledData: "(dp1
S'org.pippin.gimp.org.kernagic'
p2
(dp3
S'lstem'
p4
I0
sS'rstem'
p5
I352
ssS'com.fontlab.hintData'
p6
(dp7
S'vhints'
p8
((dp9
S'position'
p10
I193
sS'width'
p11
I122
s(dp12
g10
I193
sg11
I92
stp13
sS'hhints'
p14
((dp15
g10
I974
sg11
I94
stp16
ssS'com.typemytype.robofont.layerData'
p17
(dp18
sS'org.robofab.postScriptHintData'
p19
(dp20
s."
HStem: 476 46
VStem: 94 60 94 45
AnchorPoint: "bot" 135 0 basechar 0
AnchorPoint: "top" 225 528 basechar 0
LayerCount: 2
Fore
SplineSet
85 0 m 257
 158 0 l 257
 158 303 l 258
 158 396 212 475 318 475 c 256
 319 475 337 474 339 474 c 257
 345 533 l 257
 334 535 323 535 308 535 c 256
 246 535 187 505 150 413 c 257
 142 528 l 257
 85 528 l 257
 85 0 l 257
EndSplineSet
EndChar

StartChar: radical
Encoding: 8730 8730 324
Width: 564
VWidth: 0
Flags: HW
PickledData: "(dp1
S'org.pippin.gimp.org.kernagic'
p2
(dp3
S'lstem'
p4
I0
sS'rstem'
p5
I0
ssS'com.typemytype.robofont.layerData'
p6
(dp7
S'b'
(dp8
S'name'
p9
S'radical'
p10
sS'lib'
p11
(dp12
sS'unicodes'
p13
(tsS'width'
p14
I1136
sS'contours'
p15
(tsS'components'
p16
(tsS'anchors'
p17
(tsssS'org.robofab.postScriptHintData'
p18
(dp19
s."
LayerCount: 2
Fore
SplineSet
493 834 m 257
 441 616 348 241 297 23 c 257
 253 164 201 296 153 433 c 257
 31 405 l 257
 38 353 l 257
 109 368 l 257
 272 -79 l 257
 332 -79 l 257
 544 834 l 257
 493 834 l 257
EndSplineSet
EndChar

StartChar: registered
Encoding: 174 174 327
Width: 914
VWidth: 0
Flags: HW
PickledData: "(dp1
S'org.pippin.gimp.org.kernagic'
p2
(dp3
S'lstem'
p4
I0
sS'rstem'
p5
I0
ssS'com.typemytype.robofont.layerData'
p6
(dp7
sS'org.robofab.postScriptHintData'
p8
(dp9
s."
LayerCount: 2
Fore
SplineSet
456 -12 m 256
 639 -12 826 111 826 359 c 256
 826 607 639 730 456 730 c 256
 274 730 87 607 87 359 c 256
 87 111 274 -12 456 -12 c 256
456 26 m 256
 295 26 136 138 136 359 c 256
 136 580 295 691 456 691 c 256
 617 691 777 579 777 359 c 256
 777 138 617 26 456 26 c 256
364 405 m 257
 364 553 l 257
 462 553 l 258
 542 553 571 543 571 480 c 256
 571 428 552 405 482 405 c 258
 364 405 l 257
312 146 m 257
 364 146 l 257
 364 360 l 257
 476 360 l 257
 479 357 579 146 579 146 c 257
 636 146 l 257
 636 146 531 360 526 367 c 257
 589 372 620 416 620 482 c 256
 620 561 584 599 468 599 c 258
 312 599 l 257
 312 146 l 257
EndSplineSet
EndChar

StartChar: ring
Encoding: 730 730 328
Width: 334
VWidth: 0
Flags: HW
PickledData: "(dp1
S'org.robofab.postScriptHintData'
p2
(dp3
sS'com.typemytype.robofont.layerData'
p4
(dp5
s."
AnchorPoint: "top" 163 519 mark 0
LayerCount: 2
Fore
SplineSet
164 585 m 256
 215 585 253 624 253 673 c 256
 253 721 215 759 164 759 c 256
 112 759 74 721 74 673 c 256
 74 624 113 585 164 585 c 256
164 622 m 256
 136 622 116 645 116 672 c 256
 116 699 136 721 164 721 c 256
 191 721 212 699 212 672 c 256
 212 645 191 622 164 622 c 256
EndSplineSet
EndChar

StartChar: s
Encoding: 115 115 329
Width: 470
VWidth: 0
Flags: HW
PickledData: "(dp1
S'org.pippin.gimp.org.kernagic'
p2
(dp3
S'lstem'
p4
I168
sS'rstem'
p5
I620
ssS'org.robofab.postScriptHintData'
p6
(dp7
sS'com.typemytype.robofont.guides'
p8
((dp9
S'y'
I381
sS'x'
I77
sS'magnetic'
p10
I5
sS'angle'
p11
F90
sS'isGlobal'
p12
I00
stp13
sS'com.typemytype.robofont.layerData'
p14
(dp15
sS'com.fontlab.hintData'
p16
(dp17
S'vhints'
p18
((dp19
S'position'
p20
I142
sS'width'
p21
I107
s(dp22
g20
I738
sg21
I104
stp23
sS'hhints'
p24
((dp25
g20
I-19
sg21
I92
s(dp26
g20
I982
sg21
I92
stp27
ss."
HStem: -9 45 479 45
VStem: 69 52 360 51
AnchorPoint: "bot" 232 0 basechar 0
AnchorPoint: "top" 247 529 basechar 0
LayerCount: 2
Fore
SplineSet
358 146 m 256
 358 77 318 45 243 45 c 256
 193 45 135 60 93 103 c 257
 86 103 l 257
 50 63 l 257
 94 15 167 -10 242 -10 c 256
 342 -10 424 35 424 146 c 256
 424 209 404 258 280 298 c 257
 218 316 l 257
 145 339 128 360 128 402 c 256
 128 454 169 483 245 483 c 256
 300 483 342 463 366 438 c 257
 371 438 l 257
 410 473 l 257
 380 510 324 540 246 540 c 256
 132 540 59 488 59 401 c 256
 59 338 77 295 198 257 c 257
 262 238 l 257
 345 212 358 187 358 146 c 256
EndSplineSet
EndChar

StartChar: section
Encoding: 167 167 335
Width: 522
VWidth: 0
Flags: HW
PickledData: "(dp1
S'org.pippin.gimp.org.kernagic'
p2
(dp3
S'lstem'
p4
I0
sS'rstem'
p5
I0
ssS'com.typemytype.robofont.layerData'
p6
(dp7
S'b'
(dp8
S'name'
p9
S'section'
p10
sS'lib'
p11
(dp12
sS'unicodes'
p13
(tsS'width'
p14
I1079
sS'contours'
p15
(tsS'components'
p16
(tsS'anchors'
p17
(tsssS'org.robofab.postScriptHintData'
p18
(dp19
s."
LayerCount: 2
Fore
SplineSet
335 268 m 257
 323 273 298 282 242 299 c 256
 167 324 149 336 149 381 c 256
 149 416 166 437 191 451 c 257
 195 449 211 442 261 426 c 256
 336 401 367 376 367 336 c 256
 367 302 351 283 335 268 c 257
251 -17 m 256
 346 -17 430 27 430 132 c 256
 430 177 417 211 386 236 c 257
 413 259 431 290 431 334 c 256
 431 409 400 446 287 483 c 256
 171 522 149 533 149 583 c 256
 149 635 185 666 264 666 c 256
 316 666 363 648 394 633 c 257
 411 686 l 257
 367 707 315 721 256 721 c 256
 148 721 83 666 83 582 c 256
 83 540 96 506 133 480 c 257
 102 456 83 421 83 379 c 256
 83 313 112 278 212 245 c 256
 344 202 366 175 366 133 c 256
 366 70 321 38 256 38 c 256
 201 38 150 53 94 80 c 257
 92 21 l 257
 141 -2 198 -17 251 -17 c 256
EndSplineSet
EndChar

StartChar: semicolon
Encoding: 59 59 336
Width: 321
VWidth: 0
Flags: HW
PickledData: "(dp1
S'org.pippin.gimp.org.kernagic'
p2
(dp3
S'lstem'
p4
I0
sS'rstem'
p5
I0
ssS'com.typemytype.robofont.layerData'
p6
(dp7
sS'org.robofab.postScriptHintData'
p8
(dp9
s."
LayerCount: 2
Fore
SplineSet
167 413 m 256
 206 413 221 441 221 469 c 256
 221 495 206 524 167 524 c 256
 128 524 113 495 113 469 c 256
 113 441 129 413 167 413 c 256
115 -146 m 257
 156 -146 l 257
 156 -146 209 71 209 76 c 258
 209 111 l 257
 131 111 l 257
 131 99 115 -146 115 -146 c 257
EndSplineSet
EndChar

StartChar: seven
Encoding: 55 55 337
Width: 604
VWidth: 0
Flags: HW
PickledData: "(dp1
S'org.pippin.gimp.org.kernagic'
p2
(dp3
S'lstem'
p4
I0
sS'rstem'
p5
I0
ssS'com.typemytype.robofont.layerData'
p6
(dp7
sS'org.robofab.postScriptHintData'
p8
(dp9
s."
LayerCount: 2
Fore
SplineSet
173 0 m 257
 245 0 l 257
 515 657 l 257
 515 711 l 257
 86 711 l 257
 97 651 l 257
 440 651 l 257
 173 0 l 257
EndSplineSet
EndChar

StartChar: six
Encoding: 54 54 338
Width: 604
VWidth: 0
Flags: HW
PickledData: "(dp1
S'org.pippin.gimp.org.kernagic'
p2
(dp3
S'lstem'
p4
I0
sS'rstem'
p5
I0
ssS'com.typemytype.robofont.layerData'
p6
(dp7
sS'org.robofab.postScriptHintData'
p8
(dp9
s."
LayerCount: 2
Fore
SplineSet
312 50 m 256
 209 50 157 126 157 211 c 256
 157 335 255 371 316 371 c 256
 414 371 469 304 469 215 c 256
 469 129 414 50 312 50 c 256
314 -10 m 256
 454 -10 540 92 540 215 c 256
 540 344 450 430 339 430 c 256
 277 430 231 404 198 375 c 257
 275 484 353 593 431 701 c 257
 431 711 l 257
 355 711 l 257
 196 490 l 258
 127 394 87 324 87 216 c 256
 87 100 167 -10 314 -10 c 256
EndSplineSet
EndChar

StartChar: slash
Encoding: 47 47 339
Width: 476
VWidth: 0
Flags: HW
PickledData: "(dp1
S'org.pippin.gimp.org.kernagic'
p2
(dp3
S'lstem'
p4
I0
sS'rstem'
p5
I0
ssS'com.typemytype.robofont.layerData'
p6
(dp7
S'b'
(dp8
S'name'
p9
S'slash'
p10
sS'lib'
p11
(dp12
sS'unicodes'
p13
(tsS'width'
p14
I965
sS'contours'
p15
(tsS'components'
p16
(tsS'anchors'
p17
(tsssS'org.robofab.postScriptHintData'
p18
(dp19
s."
LayerCount: 2
Fore
SplineSet
65 -70 m 257
 126 -70 l 257
 437 762 l 257
 375 762 l 257
 65 -70 l 257
EndSplineSet
EndChar

StartChar: slashbar
Encoding: 65542 -1 340
Width: 413
VWidth: 0
Flags: HW
PickledData: "(dp1
S'org.pippin.gimp.org.kernagic'
p2
(dp3
S'lstem'
p4
I0
sS'rstem'
p5
I0
ssS'com.typemytype.robofont.layerData'
p6
(dp7
S'b'
(dp8
S'name'
p9
S'slashbar'
p10
sS'lib'
p11
(dp12
sS'unicodes'
p13
(tsS'width'
p14
I908
sS'contours'
p15
(tsS'components'
p16
(tsS'anchors'
p17
(tsssS'org.robofab.postScriptHintData'
p18
(dp19
s."
LayerCount: 2
Fore
SplineSet
80 253 m 257
 356 416 l 257
 356 472 l 257
 80 309 l 257
 80 253 l 257
EndSplineSet
EndChar

StartChar: sterling
Encoding: 163 163 342
Width: 564
VWidth: 0
Flags: HW
PickledData: "(dp1
S'org.pippin.gimp.org.kernagic'
p2
(dp3
S'lstem'
p4
I0
sS'rstem'
p5
I0
ssS'com.typemytype.robofont.layerData'
p6
(dp7
S'b'
(dp8
S'name'
p9
S'sterling'
p10
sS'lib'
p11
(dp12
sS'unicodes'
p13
(tsS'width'
p14
I1136
sS'contours'
p15
((dp16
S'points'
p17
((dp18
S'segmentType'
p19
S'line'
p20
sS'x'
I20
sS'smooth'
p21
I00
sS'y'
I0
s(dp22
g19
S'line'
p23
sS'x'
I8
sg21
I00
sS'y'
I115
s(dp24
g19
S'line'
p25
sS'x'
I180
sg21
I00
sS'y'
I132
s(dp26
g19
S'line'
p27
sS'x'
I180
sg21
I00
sS'y'
I683
s(dp28
g19
S'line'
p29
sS'x'
I8
sg21
I00
sS'y'
I683
s(dp30
g19
S'line'
p31
sS'x'
I8
sg21
I00
sS'y'
I806
s(dp32
g19
S'line'
p33
sS'x'
I180
sg21
I00
sS'y'
I806
s(dp34
g19
S'line'
p35
sS'x'
I180
sg21
I01
sS'y'
I920
s(dp36
S'y'
I1183
sS'x'
I180
sg21
I00
s(dp37
S'y'
I1476
sS'x'
I245
sg21
I00
s(dp38
g19
S'curve'
p39
sS'x'
I598
sg21
I01
sS'y'
I1476
s(dp40
S'y'
I1476
sS'x'
I742
sg21
I00
s(dp41
S'y'
I1421
sS'x'
I854
sg21
I00
s(dp42
g19
S'curve'
p43
sS'x'
I939
sg21
I00
sS'y'
I1347
s(dp44
g19
S'line'
p45
sS'x'
I871
sg21
I00
sS'y'
I1229
s(dp46
S'y'
I1297
sS'x'
I785
sg21
I00
s(dp47
S'y'
I1334
sS'x'
I700
sg21
I00
s(dp48
g19
S'curve'
p49
sS'x'
I598
sg21
I01
sS'y'
I1334
s(dp50
S'y'
I1334
sS'x'
I397
sg21
I00
s(dp51
S'y'
I1179
sS'x'
I356
sg21
I00
s(dp52
g19
S'curve'
p53
sS'x'
I356
sg21
I01
sS'y'
I949
s(dp54
g19
S'line'
p55
sS'x'
I356
sg21
I00
sS'y'
I806
s(dp56
g19
S'line'
p57
sS'x'
I739
sg21
I00
sS'y'
I806
s(dp58
g19
S'line'
p59
sS'x'
I739
sg21
I00
sS'y'
I683
s(dp60
g19
S'line'
p61
sS'x'
I356
sg21
I00
sS'y'
I683
s(dp62
g19
S'line'
p63
sS'x'
I356
sg21
I00
sS'y'
I134
s(dp64
g19
S'line'
p65
sS'x'
I953
sg21
I00
sS'y'
I134
s(dp66
g19
S'line'
p67
sS'x'
I940
sg21
I00
sS'y'
I0
stp68
stp69
sS'components'
p70
(tsS'anchors'
p71
(tsssS'org.robofab.postScriptHintData'
p72
(dp73
s."
LayerCount: 2
Fore
SplineSet
204 462 m 258
 204 589 245 659 335 659 c 256
 391 659 424 636 460 606 c 257
 468 606 l 257
 496 655 l 257
 462 688 412 721 330 721 c 256
 163 721 128 588 128 457 c 258
 128 388 l 257
 42 388 l 257
 42 334 l 257
 128 334 l 257
 128 58 l 257
 42 50 l 257
 48 0 l 257
 495 0 l 257
 500 59 l 257
 204 59 l 257
 204 334 l 257
 396 334 l 257
 396 388 l 257
 204 388 l 257
 204 462 l 258
EndSplineSet
EndChar

StartChar: t
Encoding: 116 116 344
Width: 381
VWidth: 0
Flags: HW
PickledData: "(dp1
S'org.pippin.gimp.org.kernagic'
p2
(dp3
S'lstem'
p4
I189
sS'rstem'
p5
I480
ssS'com.fontlab.hintData'
p6
(dp7
S'vhints'
p8
((dp9
S'position'
p10
I244
sS'width'
p11
I122
s(dp12
g10
I286
sg11
I80
stp13
sS'hhints'
p14
((dp15
g10
I-11
sg11
I83
stp16
ssS'com.typemytype.robofont.layerData'
p17
(dp18
sS'org.robofab.postScriptHintData'
p19
(dp20
s."
HStem: -5 41
VStem: 119 60 140 39
AnchorPoint: "bot" 226 0 basechar 0
AnchorPoint: "top" 154 663 basechar 0
LayerCount: 2
Fore
SplineSet
275 -4 m 256
 285 -4 325 -3 325 -3 c 257
 328 48 l 257
 328 48 280 49 273 49 c 256
 198 51 188 67 188 152 c 258
 188 483 l 257
 333 483 l 257
 333 528 l 257
 188 528 l 257
 188 673 l 257
 128 668 l 257
 116 528 l 257
 35 524 l 257
 34 483 l 257
 115 483 l 257
 115 152 l 258
 115 33 145 -4 275 -4 c 256
EndSplineSet
EndChar

StartChar: thorn
Encoding: 254 254 348
Width: 599
VWidth: 0
Flags: HW
PickledData: "(dp1
S'org.pippin.gimp.org.kernagic'
p2
(dp3
S'lstem'
p4
I0
sS'rstem'
p5
I0
ssS'com.typemytype.robofont.layerData'
p6
(dp7
S'b'
(dp8
S'name'
p9
S'thorn'
p10
sS'lib'
p11
(dp12
sS'unicodes'
p13
(tsS'width'
p14
I1221
sS'contours'
p15
(tsS'components'
p16
(tsS'anchors'
p17
(tsssS'org.robofab.postScriptHintData'
p18
(dp19
s."
LayerCount: 2
Fore
SplineSet
59 152 m 257
 59 -231 l 257
 129 -231 l 257
 129 152 l 257
 59 152 l 257
EndSplineSet
Refer: 154 98 N 1 0 0 1 -25 0 2
EndChar

StartChar: three
Encoding: 51 51 349
Width: 604
VWidth: 0
Flags: HW
PickledData: "(dp1
S'org.pippin.gimp.org.kernagic'
p2
(dp3
S'lstem'
p4
I0
sS'rstem'
p5
I0
ssS'com.typemytype.robofont.layerData'
p6
(dp7
sS'org.robofab.postScriptHintData'
p8
(dp9
s."
LayerCount: 2
Fore
SplineSet
299 -10 m 256
 448 -10 524 81 524 187 c 256
 524 291 468 359 370 377 c 257
 456 397 505 452 505 535 c 258
 505 539 l 258
 505 649 428 721 302 721 c 256
 240 721 136 703 84 612 c 257
 127 576 l 257
 135 576 l 257
 177 635 235 658 297 658 c 258
 303 658 l 258
 386 658 435 615 435 539 c 258
 435 534 l 258
 435 422 330 408 248 407 c 257
 214 407 l 257
 225 343 l 257
 247 343 l 257
 375 343 454 310 454 188 c 256
 454 94 386 53 299 53 c 256
 245 53 177 69 139 126 c 257
 133 126 l 257
 89 91 l 257
 134 16 223 -10 299 -10 c 256
EndSplineSet
EndChar

StartChar: threequarters
Encoding: 190 190 350
Width: 851
VWidth: 0
Flags: HW
PickledData: "(dp1
S'org.pippin.gimp.org.kernagic'
p2
(dp3
S'lstem'
p4
I0
sS'rstem'
p5
I0
ssS'com.typemytype.robofont.layerData'
p6
(dp7
sS'org.robofab.postScriptHintData'
p8
(dp9
s."
LayerCount: 2
Fore
SplineSet
562 143 m 257
 696 342 l 257
 696 143 l 257
 562 143 l 257
208 0 m 257
 268 0 l 257
 707 726 l 257
 648 726 l 257
 208 0 l 257
697 0 m 257
 753 0 l 257
 753 96 l 257
 813 96 l 257
 810 143 l 257
 754 143 l 257
 754 416 l 257
 692 416 l 257
 500 137 l 257
 500 96 l 257
 697 96 l 257
 697 0 l 257
173 297 m 256
 243 297 308 336 308 421 c 256
 308 470 278 508 227 522 c 257
 277 534 298 581 298 619 c 256
 298 691 240 725 176 725 c 256
 135 725 93 711 60 685 c 257
 83 644 l 257
 115 664 147 674 174 674 c 256
 213 674 241 654 241 612 c 256
 241 570 210 544 160 544 c 258
 117 544 l 257
 117 494 l 257
 161 494 l 258
 219 494 249 468 249 419 c 256
 249 368 215 348 173 348 c 256
 143 348 109 358 81 376 c 257
 61 333 l 257
 93 310 134 297 173 297 c 256
EndSplineSet
Ligature2: "fracDiagonalFractionslookup11 subtable" three slash four
EndChar

StartChar: tilde
Encoding: 732 732 351
Width: 485
VWidth: 0
Flags: HW
PickledData: "(dp1
S'org.robofab.postScriptHintData'
p2
(dp3
sS'com.fontlab.hintData'
p4
(dp5
S'vhints'
p6
((dp7
S'position'
p8
I169
sS'width'
p9
I63
s(dp10
g8
I657
sg9
I67
stp11
sS'hhints'
p12
((dp13
g8
I1301
sg9
I88
s(dp14
g8
I1400
sg9
I79
stp15
ssS'com.typemytype.robofont.layerData'
p16
(dp17
s."
HStem: 635 43 684 39
VStem: 83 31 321 33
AnchorPoint: "top" 243 519 mark 0
LayerCount: 2
Fore
SplineSet
87 637 m 257
 126 637 l 257
 129 671 142 686 160 686 c 256
 196 686 257 637 307 637 c 256
 345 637 375 663 375 733 c 257
 334 733 l 257
 330 701 320 690 304 690 c 256
 273 690 221 734 163 734 c 256
 120 734 87 706 87 637 c 257
EndSplineSet
EndChar

StartChar: trademark
Encoding: 8482 8482 352
Width: 1050
VWidth: 0
Flags: HW
PickledData: "(dp1
S'org.robofab.postScriptHintData'
p2
(dp3
sS'com.typemytype.robofont.layerData'
p4
(dp5
S'b'
(dp6
S'name'
p7
S'trademark'
p8
sS'lib'
p9
(dp10
sS'unicodes'
p11
(tsS'width'
p12
I2216
sS'contours'
p13
(tsS'components'
p14
(tsS'anchors'
p15
(tsss."
LayerCount: 2
Fore
SplineSet
191 258 m 257
 249 258 l 257
 249 666 l 257
 401 666 l 257
 401 713 l 257
 42 713 l 257
 42 666 l 257
 191 666 l 257
 191 258 l 257
470 258 m 257
 521 258 l 257
 524 642 l 257
 681 312 l 257
 725 312 l 257
 880 638 l 257
 883 258 l 257
 935 258 l 257
 927 713 l 257
 866 713 l 257
 704 374 l 257
 540 713 l 257
 478 713 l 257
 470 258 l 257
EndSplineSet
EndChar

StartChar: two
Encoding: 50 50 353
Width: 604
VWidth: 0
Flags: HW
PickledData: "(dp1
S'org.pippin.gimp.org.kernagic'
p2
(dp3
S'lstem'
p4
I0
sS'rstem'
p5
I0
ssS'com.typemytype.robofont.layerData'
p6
(dp7
sS'org.robofab.postScriptHintData'
p8
(dp9
s."
LayerCount: 2
Fore
SplineSet
120 598 m 257
 160 637 222 659 282 659 c 256
 357 659 438 623 438 519 c 256
 438 432 405 401 333 330 c 258
 65 66 l 257
 80 0 l 257
 499 0 l 257
 502 62 l 257
 151 62 l 257
 379 284 l 258
 474 376 508 418 508 522 c 256
 508 663 387 721 282 721 c 256
 204 721 124 692 77 643 c 257
 111 598 l 257
 120 598 l 257
EndSplineSet
EndChar

StartChar: u
Encoding: 117 117 354
Width: 583
VWidth: 0
Flags: HW
PickledData: "(dp1
S'org.pippin.gimp.org.kernagic'
p2
(dp3
S'lstem'
p4
I0
sS'rstem'
p5
I0
ssS'com.fontlab.hintData'
p6
(dp7
S'vhints'
p8
((dp9
S'position'
p10
I162
sS'width'
p11
I166
s(dp12
g10
I862
sg11
I166
stp13
sS'hhints'
p14
((dp15
g10
I-21
sg11
I126
stp16
ssS'com.typemytype.robofont.layerData'
p17
(dp18
sS'org.robofab.postScriptHintData'
p19
(dp20
s."
HStem: -10 62
VStem: 79 81 421 81
AnchorPoint: "bot" 275 0 basechar 0
AnchorPoint: "top" 297 529 basechar 0
LayerCount: 2
Fore
SplineSet
426 122 m 257
 404 92 360 45 271 45 c 256
 182 45 150 102 150 193 c 258
 150 528 l 257
 77 528 l 257
 77 199 l 258
 77 58 142 -10 266 -10 c 256
 345 -10 397 19 432 66 c 257
 436 0 l 257
 499 0 l 257
 499 528 l 257
 426 528 l 257
 426 122 l 257
EndSplineSet
EndChar

StartChar: underscore
Encoding: 95 95 362
Width: 433
VWidth: 0
Flags: HW
PickledData: "(dp1
S'org.pippin.gimp.org.kernagic'
p2
(dp3
S'lstem'
p4
I0
sS'rstem'
p5
I0
ssS'com.typemytype.robofont.layerData'
p6
(dp7
sS'org.robofab.postScriptHintData'
p8
(dp9
s."
LayerCount: 2
Fore
SplineSet
0 -125 m 257
 433 -125 l 257
 433 -71 l 257
 0 -71 l 257
 0 -125 l 257
EndSplineSet
EndChar

StartChar: uni00AD
Encoding: 173 173 365
Width: 451
VWidth: 0
Flags: HW
PickledData: "(dp1
S'org.robofab.postScriptHintData'
p2
(dp3
s."
LayerCount: 2
Fore
SplineSet
52 218 m 257
 398 218 l 257
 398 277 l 257
 52 277 l 257
 52 218 l 257
EndSplineSet
EndChar

StartChar: uni00B2
Encoding: 178 178 366
Width: 375
VWidth: 0
Flags: HW
PickledData: "(dp1
S'org.robofab.postScriptHintData'
p2
(dp3
sS'com.typemytype.robofont.layerData'
p4
(dp5
s."
LayerCount: 2
Fore
SplineSet
73 323 m 257
 319 323 l 257
 322 368 l 257
 151 368 l 257
 201 417 214 428 249 464 c 256
 297 513 323 554 323 611 c 256
 323 693 262 736 193 736 c 256
 129 736 81 712 48 670 c 257
 76 634 l 257
 104 668 140 688 191 688 c 256
 237 688 269 655 269 609 c 256
 269 578 247 544 208 500 c 256
 155 441 126 420 73 368 c 257
 73 323 l 257
EndSplineSet
EndChar

StartChar: uni00B3
Encoding: 179 179 367
Width: 426
VWidth: 0
Flags: HW
PickledData: "(dp1
S'org.robofab.postScriptHintData'
p2
(dp3
sS'com.typemytype.robofont.layerData'
p4
(dp5
s."
LayerCount: 2
Fore
SplineSet
214 313 m 256
 286 313 350 351 350 430 c 256
 350 485 316 521 271 532 c 257
 316 543 346 578 346 628 c 256
 346 704 286 734 220 734 c 256
 167 734 116 718 86 688 c 257
 109 653 l 257
 134 675 168 690 214 690 c 256
 260 690 296 670 296 625 c 256
 296 582 268 552 208 552 c 258
 153 552 l 257
 153 510 l 257
 208 510 l 257
 209 510 l 258
 267 510 300 478 300 431 c 256
 300 383 261 357 213 357 c 256
 166 357 130 373 108 396 c 257
 85 357 l 257
 115 328 164 313 214 313 c 256
EndSplineSet
EndChar

StartChar: uni00B9
Encoding: 185 185 368
Width: 435
VWidth: 0
Flags: HW
PickledData: "(dp1
S'org.robofab.postScriptHintData'
p2
(dp3
sS'com.typemytype.robofont.layerData'
p4
(dp5
s."
LayerCount: 2
Fore
SplineSet
131 316 m 257
 364 316 l 257
 364 364 l 257
 280 364 l 257
 280 729 l 257
 231 729 l 257
 212 712 156 687 129 679 c 257
 129 631 l 257
 150 635 201 655 220 667 c 257
 220 364 l 257
 131 364 l 257
 131 316 l 257
EndSplineSet
EndChar

StartChar: uni0237
Encoding: 567 567 438
Width: 275
VWidth: 0
Flags: HW
PickledData: "(dp1
S'org.pippin.gimp.org.kernagic'
p2
(dp3
S'lstem'
p4
I0
sS'rstem'
p5
I0
ssS'com.fontlab.hintData'
p6
(dp7
S'vhints'
p8
((dp9
S'position'
p10
I111
sS'width'
p11
I142
stp12
sS'hhints'
p13
((dp14
g10
I-479
sg11
I112
stp15
ssS'com.typemytype.robofont.layerData'
p16
(dp17
sS'org.robofab.postScriptHintData'
p18
(dp19
s."
HStem: -234 55
VStem: 54 69
AnchorPoint: "top" 155 528 basechar 0
LayerCount: 2
Fore
SplineSet
118 528 m 257
 118 14 l 258
 118 -80 116 -101 43 -113 c 257
 15 -118 l 257
 22 -178 l 257
 51 -175 l 258
 150 -165 190 -129 190 -6 c 258
 190 528 l 257
 118 528 l 257
EndSplineSet
EndChar

StartChar: uni0259
Encoding: 601 601 439
Width: 550
VWidth: 0
Flags: HW
PickledData: "(dp1
S'com.fontlab.hintData'
p2
(dp3
S'hhints'
p4
((dp5
S'position'
p6
I-19
sS'width'
p7
I94
s(dp8
g6
I982
sg7
I92
stp9
ss."
HStem: -9 46 479 45
LayerCount: 2
Fore
SplineSet
426 226 m 257
 416 118 354 46 261 46 c 256
 169 46 127 112 125 226 c 257
 426 226 l 257
67 275 m 257
 67 273 63 239 63 226 c 256
 63 80 139 -10 263 -10 c 256
 392 -10 502 90 502 267 c 256
 502 435 395 540 255 540 c 256
 182 540 123 519 78 490 c 257
 96 439 l 257
 102 439 l 257
 147 464 186 483 246 483 c 256
 345 483 421 421 428 275 c 257
 67 275 l 257
EndSplineSet
EndChar

StartChar: uni02BC
Encoding: 700 700 440
Width: 313
VWidth: 0
Flags: HW
PickledData: "(dp1
S'org.robofab.postScriptHintData'
p2
(dp3
sS'com.typemytype.robofont.layerData'
p4
(dp5
s."
LayerCount: 2
Fore
SplineSet
65 571 m 257
 121 571 l 257
 121 571 172 750 177 781 c 257
 98 781 l 257
 97 765 65 571 65 571 c 257
EndSplineSet
EndChar

StartChar: uni02C9
Encoding: 713 713 441
Width: 292
VWidth: 0
Flags: HW
PickledData: "(dp1
S'org.robofab.postScriptHintData'
p2
(dp3
s."
AnchorPoint: "top" 152 519 mark 0
LayerCount: 2
Fore
SplineSet
3 638 m 257
 288 638 l 257
 288 696 l 257
 3 696 l 257
 3 638 l 257
EndSplineSet
EndChar

StartChar: uni0307
Encoding: 775 775 442
Width: 188
VWidth: 0
Flags: HW
PickledData: "(dp1
S'org.robofab.postScriptHintData'
p2
(dp3
sS'com.typemytype.robofont.layerData'
p4
(dp5
s."
LayerCount: 2
Fore
SplineSet
151 708 m 256
 151 741 132 760 97 760 c 256
 62 760 43 741 43 708 c 256
 43 675 62 656 97 656 c 256
 132 656 151 675 151 708 c 256
EndSplineSet
EndChar

StartChar: uni030F
Encoding: 783 783 443
Width: 407
VWidth: 0
Flags: HW
PickledData: "(dp1
S'org.robofab.postScriptHintData'
p2
(dp3
sS'com.typemytype.robofont.layerData'
p4
(dp5
s."
AnchorPoint: "top" 224 519 mark 0
LayerCount: 2
Fore
SplineSet
257 607 m 257
 304 607 l 257
 243 772 l 257
 175 772 l 257
 257 607 l 257
135 607 m 257
 181 607 l 257
 107 772 l 257
 32 772 l 257
 135 607 l 257
EndSplineSet
EndChar

StartChar: uni0311
Encoding: 785 785 444
Width: 379
VWidth: 0
Flags: HW
PickledData: "(dp1
S'org.robofab.postScriptHintData'
p2
(dp3
sS'com.typemytype.robofont.layerData'
p4
(dp5
s."
AnchorPoint: "top" 196 519 mark 0
LayerCount: 2
Fore
SplineSet
82 625 m 257
 129 625 l 257
 129 673 163 694 194 694 c 256
 225 694 261 673 261 625 c 257
 308 625 l 257
 308 705 256 740 194 740 c 256
 132 740 82 705 82 625 c 257
EndSplineSet
EndChar

StartChar: uni0312
Encoding: 786 786 445
Width: 292
VWidth: 0
Flags: HW
PickledData: "(dp1
S'org.robofab.postScriptHintData'
p2
(dp3
s."
AnchorPoint: "top" 146 519 mark 0
LayerCount: 2
Fore
SplineSet
103 639 m 257
 102 627 l 257
 185 627 l 257
 185 669 197 870 197 870 c 257
 150 870 l 257
 150 870 103 660 103 639 c 257
EndSplineSet
EndChar

StartChar: uni0326
Encoding: 806 806 446
Width: 296
VWidth: 0
Flags: HW
PickledData: "(dp1
S'org.robofab.postScriptHintData'
p2
(dp3
s."
AnchorPoint: "bot" 158 0 mark 0
LayerCount: 2
Fore
SplineSet
103 -251 m 257
 150 -251 l 257
 150 -251 194 -95 193 -70 c 257
 121 -70 l 257
 121 -112 103 -251 103 -251 c 257
EndSplineSet
EndChar

StartChar: uni0358
Encoding: 856 856 447
Width: 188
VWidth: 0
Flags: HW
LayerCount: 2
Fore
SplineSet
151 708 m 256
 151 741 132 760 97 760 c 256
 62 760 43 741 43 708 c 256
 43 675 62 656 97 656 c 256
 132 656 151 675 151 708 c 256
EndSplineSet
EndChar

StartChar: uni0394
Encoding: 916 916 448
Width: 653
VWidth: 0
Flags: HW
PickledData: "(dp1
S'org.pippin.gimp.org.kernagic'
p2
(dp3
S'lstem'
p4
I0
sS'rstem'
p5
I0
ssS'com.typemytype.robofont.layerData'
p6
(dp7
S'b'
(dp8
S'name'
p9
S'Delta'
p10
sS'lib'
p11
(dp12
sS'unicodes'
p13
(tsS'width'
p14
I1334
sS'contours'
p15
(tsS'components'
p16
(tsS'anchors'
p17
(tsssS'org.robofab.postScriptHintData'
p18
(dp19
s."
LayerCount: 2
Fore
SplineSet
123 65 m 257
 322 649 l 257
 526 65 l 257
 123 65 l 257
30 0 m 257
 619 0 l 257
 359 726 l 257
 286 726 l 257
 30 0 l 257
EndSplineSet
EndChar

StartChar: uni03A9
Encoding: 937 937 449
Width: 782
VWidth: 0
Flags: HW
LayerCount: 2
Fore
SplineSet
60 0 m 257
 53 57 l 257
 229 57 l 257
 131 125 60 236 60 377 c 256
 60 577 204 707 398 707 c 256
 599 707 726 564 726 376 c 256
 726 232 640 123 554 57 c 257
 728 57 l 257
 722 0 l 257
 475 0 l 257
 474 54 l 257
 575 121 649 231 649 367 c 256
 649 516 564 644 396 644 c 256
 243 644 136 534 136 369 c 256
 136 234 206 121 310 54 c 257
 310 0 l 257
 60 0 l 257
EndSplineSet
EndChar

StartChar: uni03BC
Encoding: 956 956 450
Width: 579
VWidth: 0
Flags: HW
LayerCount: 2
Fore
SplineSet
426 122 m 257
 404 92 360 45 271 45 c 256
 182 45 150 102 150 193 c 258
 150 528 l 257
 77 528 l 257
 77 -146 l 257
 150 -146 l 257
 150 20 l 257
 180 0 219 -10 266 -10 c 256
 345 -10 397 19 432 66 c 257
 436 0 l 257
 499 0 l 257
 499 528 l 257
 426 528 l 257
 426 122 l 257
EndSplineSet
EndChar

StartChar: uni2074
Encoding: 8308 8308 469
Width: 344
VWidth: 0
Flags: HW
PickledData: "(dp1
S'org.robofab.postScriptHintData'
p2
(dp3
sS'com.typemytype.robofont.layerData'
p4
(dp5
s."
LayerCount: 2
Fore
SplineSet
88 456 m 257
 208 660 l 257
 208 456 l 257
 88 456 l 257
208 309 m 257
 262 309 l 257
 262 413 l 257
 320 413 l 257
 322 456 l 257
 263 456 l 257
 263 731 l 257
 204 731 l 257
 31 459 l 257
 31 413 l 257
 208 413 l 257
 208 309 l 257
EndSplineSet
EndChar

StartChar: v
Encoding: 118 118 480
Width: 522
VWidth: 0
Flags: HW
PickledData: "(dp1
S'org.pippin.gimp.org.kernagic'
p2
(dp3
S'lstem'
p4
I0
sS'rstem'
p5
I0
ssS'com.typemytype.robofont.guides'
p6
((dp7
S'y'
I552
sS'x'
I438
sS'magnetic'
p8
I5
sS'angle'
p9
I0
sS'isGlobal'
p10
I00
stp11
sS'com.typemytype.robofont.layerData'
p12
(dp13
sS'org.robofab.postScriptHintData'
p14
(dp15
s."
LayerCount: 2
Fore
SplineSet
226 0 m 257
 301 0 l 257
 492 528 l 257
 419 528 l 257
 368 380 317 231 264 84 c 257
 210 230 158 379 106 528 c 257
 32 528 l 257
 226 0 l 257
EndSplineSet
EndChar

StartChar: w
Encoding: 119 119 481
Width: 735
VWidth: 0
Flags: HW
PickledData: "(dp1
S'org.pippin.gimp.org.kernagic'
p2
(dp3
S'lstem'
p4
I0
sS'rstem'
p5
I0
ssS'com.typemytype.robofont.layerData'
p6
(dp7
sS'org.robofab.postScriptHintData'
p8
(dp9
s."
AnchorPoint: "top" 369 528 basechar 0
LayerCount: 2
Fore
SplineSet
370 458 m 257
 516 0 l 257
 580 0 l 257
 719 528 l 257
 652 528 l 257
 547 98 l 257
 407 525 l 257
 329 525 l 257
 197 99 l 257
 85 528 l 257
 17 528 l 257
 161 0 l 257
 225 0 l 257
 370 458 l 257
EndSplineSet
EndChar

StartChar: x
Encoding: 120 120 486
Width: 510
VWidth: 0
Flags: HW
PickledData: "(dp1
S'org.pippin.gimp.org.kernagic'
p2
(dp3
S'lstem'
p4
I0
sS'rstem'
p5
I0
ssS'com.fontlab.hintData'
p6
(dp7
S'hhints'
p8
((dp9
S'position'
p10
I0
sS'width'
p11
I22
s(dp12
g10
I1034
sg11
I21
stp13
ssS'com.typemytype.robofont.layerData'
p14
(dp15
sS'org.robofab.postScriptHintData'
p16
(dp17
s."
HStem: 0 11 505 10
LayerCount: 2
Fore
SplineSet
299 268 m 257
 481 528 l 257
 405 528 l 257
 263 320 l 257
 121 528 l 257
 39 528 l 257
 217 269 l 257
 27 0 l 257
 102 0 l 257
 252 216 l 257
 400 0 l 257
 481 0 l 257
 299 268 l 257
EndSplineSet
EndChar

StartChar: y
Encoding: 121 121 487
Width: 545
VWidth: 0
Flags: HW
PickledData: "(dp1
S'org.pippin.gimp.org.kernagic'
p2
(dp3
S'lstem'
p4
I0
sS'rstem'
p5
I0
ssS'com.typemytype.robofont.layerData'
p6
(dp7
sS'org.robofab.postScriptHintData'
p8
(dp9
s."
AnchorPoint: "top" 283 528 basechar 0
LayerCount: 2
Fore
SplineSet
519 528 m 257
 448 528 l 257
 282 102 l 257
 103 528 l 257
 25 528 l 257
 246 18 l 257
 170 -183 l 257
 233 -199 l 257
 519 528 l 257
EndSplineSet
EndChar

StartChar: yen
Encoding: 165 165 491
Width: 652
VWidth: 0
Flags: HW
PickledData: "(dp1
S'org.pippin.gimp.org.kernagic'
p2
(dp3
S'lstem'
p4
I0
sS'rstem'
p5
I0
ssS'com.typemytype.robofont.layerData'
p6
(dp7
S'b'
(dp8
S'name'
p9
S'yen'
p10
sS'lib'
p11
(dp12
sS'unicodes'
p13
(tsS'width'
p14
I1366
sS'contours'
p15
(tsS'components'
p16
(tsS'anchors'
p17
(tsssS'org.robofab.postScriptHintData'
p18
(dp19
s."
LayerCount: 2
Fore
SplineSet
128 259 m 257
 516 259 l 257
 516 307 l 257
 128 307 l 257
 128 259 l 257
128 133 m 257
 516 133 l 257
 516 181 l 257
 128 181 l 257
 128 133 l 257
EndSplineSet
Refer: 124 89 N 1 0 0 1 0 0 2
EndChar

StartChar: z
Encoding: 122 122 493
Width: 483
VWidth: 0
Flags: HW
PickledData: "(dp1
S'org.pippin.gimp.org.kernagic'
p2
(dp3
S'lstem'
p4
I0
sS'rstem'
p5
I0
ssS'com.typemytype.robofont.layerData'
p6
(dp7
sS'org.robofab.postScriptHintData'
p8
(dp9
s."
AnchorPoint: "bot" 230 0 basechar 0
AnchorPoint: "top" 247 528 basechar 0
LayerCount: 2
Fore
SplineSet
63 528 m 257
 65 475 l 257
 348 475 l 257
 53 49 l 257
 53 0 l 257
 427 0 l 257
 423 55 l 257
 131 55 l 257
 423 477 l 257
 423 528 l 257
 63 528 l 257
EndSplineSet
EndChar

StartChar: zero
Encoding: 48 48 497
Width: 607
VWidth: 0
Flags: HW
PickledData: "(dp1
S'org.pippin.gimp.org.kernagic'
p2
(dp3
S'lstem'
p4
I0
sS'rstem'
p5
I0
ssS'com.typemytype.robofont.layerData'
p6
(dp7
S'b'
(dp8
S'name'
p9
S'zero'
p10
sS'lib'
p11
(dp12
sS'unicodes'
p13
(tsS'width'
p14
I1248
sS'contours'
p15
(tsS'components'
p16
(tsS'anchors'
p17
(tsssS'org.robofab.postScriptHintData'
p18
(dp19
s."
LayerCount: 2
Fore
SplineSet
306 -10 m 256
 471 -10 540 126 540 346 c 256
 540 578 462 721 306 721 c 256
 150 721 67 577 67 346 c 256
 67 126 141 -10 306 -10 c 256
306 54 m 256
 207 54 141 130 141 348 c 258
 141 352 l 258
 141 556 207 658 306 658 c 256
 405 658 467 571 467 348 c 256
 467 130 405 54 306 54 c 256
EndSplineSet
EndChar
